<svg width="47" height="47" viewBox="0 0 47 47" fill="none" xmlns="http://www.w3.org/2000/svg">
<path d="M7.83333 22.1936L0 17.6248L23.5 3.9165L47 17.6248V34.2707H43.0833V19.9102L39.1667 22.1936V35.2714L38.73 35.8099C36.8962 38.0832 34.5762 39.9166 31.9405 41.1753C29.3049 42.4339 26.4207 43.0859 23.5 43.0832C20.5793 43.0859 17.6951 42.4339 15.0594 41.1753C12.4238 39.9166 10.1038 38.0832 8.27004 35.8099L7.83333 35.2714V22.1936ZM11.75 24.479V33.8633C13.2187 35.5322 15.0265 36.8684 17.0527 37.783C19.0789 38.6975 21.277 39.1691 23.5 39.1665C25.723 39.1691 27.9211 38.6975 29.9473 37.783C31.9735 36.8684 33.7813 35.5322 35.25 33.8633V24.479L23.5 31.3332L11.75 24.479ZM7.77458 17.6248L23.5 26.7996L39.2254 17.6248L23.5 8.45005L7.77458 17.6248Z" fill="#94C21A"/>
</svg>
