<svg width="65" height="65" viewBox="0 0 65 65" fill="none" xmlns="http://www.w3.org/2000/svg">
<path d="M58.7222 42.3333C58.7222 48.4431 58.7222 51.498 57.7258 53.9039C57.0669 55.4948 56.101 56.9403 54.8834 58.1579C53.6658 59.3755 52.2203 60.3414 50.6294 61.0003C48.2202 62 45.1653 62 39.0556 62H29.2222C16.8584 62 10.6766 62 6.835 58.1584C3 54.3202 3 48.1383 3 35.7778V16.1111C3 12.6338 4.38134 9.29896 6.84015 6.84015C9.29896 4.38134 12.6338 3 16.1111 3" stroke="#94C21A" stroke-width="5" stroke-linecap="round" stroke-linejoin="round"/>
<path d="M25.9447 21.0278L27.3672 34.0373C27.4277 34.5707 27.6264 35.079 27.9438 35.5119C28.2611 35.9449 28.6861 36.2874 29.1766 36.5055C31.4251 37.4724 35.6371 39.0556 39.0558 39.0556C42.4745 39.0556 46.6864 37.4724 48.935 36.5055C49.4261 36.2878 49.8517 35.9455 50.1696 35.5125C50.4876 35.0796 50.6868 34.571 50.7476 34.0373L52.1669 21.0278M60.3613 17.7501V30.1073M39.0558 6.27783L16.1113 16.1112L39.0558 25.9445L62.0002 16.1112L39.0558 6.27783Z" stroke="#94C21A" stroke-width="5" stroke-linecap="round" stroke-linejoin="round"/>
</svg>
