<svg width="43" height="44" viewBox="0 0 43 44" fill="none" xmlns="http://www.w3.org/2000/svg">
<path fill-rule="evenodd" clip-rule="evenodd" d="M22.79 20.9242L31.1556 29.3811L29.3324 31.2264L20.21 22.0044V8.96379H22.79V20.9242ZM21.5 43.7389C9.62555 43.7389 0 34.0084 0 22.0044C0 10.0005 9.62555 0.27002 21.5 0.27002C33.3745 0.27002 43 10.0005 43 22.0044C43 34.0084 33.3745 43.7389 21.5 43.7389ZM21.5 41.1307C26.5179 41.1307 31.3303 39.1157 34.8785 35.5288C38.4266 31.9419 40.42 27.0771 40.42 22.0044C40.42 16.9318 38.4266 12.067 34.8785 8.48011C31.3303 4.89324 26.5179 2.87815 21.5 2.87815C16.4821 2.87815 11.6697 4.89324 8.12154 8.48011C4.57335 12.067 2.58 16.9318 2.58 22.0044C2.58 27.0771 4.57335 31.9419 8.12154 35.5288C11.6697 39.1157 16.4821 41.1307 21.5 41.1307Z" fill="#94C21A"/>
</svg>
