<svg width="42" height="46" viewBox="0 0 42 46" fill="none" xmlns="http://www.w3.org/2000/svg">
<path d="M21 18.1853C21.9703 18.1853 22.9311 17.9667 23.8276 17.5419C24.7241 17.1172 25.5386 16.4946 26.2247 15.7097C26.9109 14.9248 27.4551 13.9931 27.8264 12.9676C28.1978 11.9421 28.3889 10.843 28.3889 9.73304C28.3889 8.62307 28.1978 7.52397 27.8264 6.49849C27.4551 5.47301 26.9109 4.54124 26.2247 3.75638C25.5386 2.97151 24.7241 2.34892 23.8276 1.92415C22.9311 1.49939 21.9703 1.28076 21 1.28076C19.0403 1.28076 17.161 2.17127 15.7753 3.75638C14.3896 5.34149 13.6111 7.49136 13.6111 9.73304C13.6111 11.9747 14.3896 14.1246 15.7753 15.7097C17.161 17.2948 19.0403 18.1853 21 18.1853ZM2 43.3007V44.7496H40V43.3007C40 37.8912 40 35.1865 39.0796 33.1193C38.27 31.3018 36.9782 29.8241 35.3893 28.898C33.5822 27.8451 31.2178 27.8451 26.4889 27.8451H15.5111C10.7822 27.8451 8.41778 27.8451 6.61067 28.898C5.02181 29.8241 3.73003 31.3018 2.92044 33.1193C2 35.1865 2 37.8912 2 43.3007Z" stroke="#94C21A" stroke-width="2.5" stroke-linecap="round" stroke-linejoin="round"/>
</svg>
