<svg width="41" height="48" viewBox="0 0 41 48" fill="none" xmlns="http://www.w3.org/2000/svg">
<path d="M37.1562 47.9999H3.84375C1.71688 47.9999 0 45.9899 0 43.4999V7.49999C0 5.00999 1.71688 3 3.84375 3H37.1562C39.2831 3 41 5.00999 41 7.49999V43.4999C41 45.9899 39.2831 47.9999 37.1562 47.9999ZM3.84375 5.99999C3.12625 5.99999 2.5625 6.65999 2.5625 7.49999V43.4999C2.5625 44.3399 3.12625 44.9999 3.84375 44.9999H37.1562C37.8737 44.9999 38.4375 44.3399 38.4375 43.4999V7.49999C38.4375 6.65999 37.8737 5.99999 37.1562 5.99999H3.84375Z" fill="#94C21A"/>
<path d="M11.5312 12C10.8138 12 10.25 11.34 10.25 10.5V1.5C10.25 0.659998 10.8138 0 11.5312 0C12.2487 0 12.8125 0.659998 12.8125 1.5V10.5C12.8125 11.34 12.2487 12 11.5312 12ZM29.4688 12C28.7512 12 28.1875 11.34 28.1875 10.5V1.5C28.1875 0.659998 28.7512 0 29.4688 0C30.1863 0 30.75 0.659998 30.75 1.5V10.5C30.75 11.34 30.1863 12 29.4688 12ZM39.7188 18H1.28125C0.56375 18 0 17.34 0 16.5C0 15.66 0.56375 15 1.28125 15H39.7188C40.4362 15 41 15.66 41 16.5C41 17.34 40.4362 18 39.7188 18Z" fill="#94C21A"/>
</svg>
