<svg width="35" height="31" viewBox="0 0 35 31" fill="none" xmlns="http://www.w3.org/2000/svg">
<path fill-rule="evenodd" clip-rule="evenodd" d="M8.66283 5.84005V3.72764C8.66309 2.97118 8.94299 2.23992 9.45168 1.66674C9.96037 1.09357 10.6641 0.716531 11.4349 0.604144L13.7047 0.27374C16.2209 -0.0912466 18.7791 -0.0912466 21.2953 0.27374L23.5651 0.604144C24.3359 0.716531 25.0396 1.09357 25.5483 1.66674C26.057 2.23992 26.3369 2.97118 26.3372 3.72764V5.84005L29.526 6.08921C30.7124 6.18223 31.8324 6.6586 32.707 7.44217C33.5815 8.22575 34.1601 9.27126 34.3502 10.4115C35.2166 15.598 35.2166 20.8859 34.3502 26.0723C34.1601 27.2126 33.5815 28.2581 32.707 29.0417C31.8324 29.8253 30.7124 30.3017 29.526 30.3947L26.0432 30.6655C20.357 31.1115 14.643 31.1115 8.95678 30.6655L5.47401 30.3947C4.28759 30.3017 3.16757 29.8253 2.29303 29.0417C1.41848 28.2581 0.839917 27.2126 0.649841 26.0723C-0.216614 20.8859 -0.216614 15.598 0.649841 10.4115C0.840294 9.27159 1.41902 8.22649 2.29353 7.44327C3.16805 6.66006 4.28786 6.18394 5.47401 6.09102L8.66283 5.84005ZM14.1195 2.95128C16.3608 2.62642 18.6392 2.62642 20.8805 2.95128L23.1502 3.28168C23.2603 3.29767 23.3609 3.35147 23.4336 3.43331C23.5063 3.51514 23.5464 3.61958 23.5465 3.72764V5.65048C19.5188 5.42725 15.4812 5.42725 11.4535 5.65048V3.72583C11.4536 3.61777 11.4937 3.51334 11.5664 3.4315C11.6391 3.34967 11.7397 3.29587 11.8498 3.27987L14.1195 2.95128ZM9.1819 8.51579C14.7186 8.08247 20.2814 8.08247 25.8181 8.51579L29.3009 8.79022C29.8653 8.83404 30.3982 9.0603 30.8144 9.43279C31.2306 9.80529 31.5061 10.3025 31.5967 10.8449C31.712 11.5394 31.8113 12.2363 31.8944 12.9356C27.4161 15.0747 22.4914 16.1872 17.5 16.1872C12.5086 16.1872 7.58394 15.0747 3.10564 12.9356C3.1875 12.2375 3.28673 11.5406 3.40332 10.8449C3.49393 10.3025 3.76938 9.80529 4.1856 9.43279C4.60181 9.0603 5.13474 8.83404 5.69912 8.79022L9.1819 8.51579ZM2.85634 15.8172C7.45518 17.8459 12.4483 18.8956 17.5 18.8956C22.5517 18.8956 27.5448 17.8459 32.1437 15.8172C32.3218 19.1007 32.1385 22.3933 31.5967 25.639C31.5064 26.1817 31.2312 26.6793 30.8149 27.0522C30.3987 27.425 29.8655 27.6516 29.3009 27.6955L25.8181 27.9663C20.2814 28.3996 14.7186 28.3996 9.1819 27.9663L5.69912 27.6955C5.13447 27.6516 4.60134 27.425 4.18509 27.0522C3.76884 26.6793 3.49356 26.1817 3.40332 25.639C2.86192 22.3891 2.67774 19.0959 2.85634 15.8172Z" fill="#555555"/>
</svg>
