<svg width="36" height="43" viewBox="0 0 36 43" fill="none" xmlns="http://www.w3.org/2000/svg">
<path fill-rule="evenodd" clip-rule="evenodd" d="M17.7409 0C22.4461 0 26.9585 1.86913 30.2856 5.19619C33.6127 8.52325 35.4818 13.0357 35.4818 17.7409C35.4818 23.8004 32.1781 28.76 28.6969 32.318C26.9576 34.0765 25.0599 35.6707 23.0277 37.0805L22.188 37.6521L21.7937 37.9143L21.0506 38.3874L20.3882 38.7915L19.5682 39.2685C19.0116 39.5862 18.3818 39.7533 17.7409 39.7533C17.1 39.7533 16.4702 39.5862 15.9136 39.2685L15.0936 38.7915L14.0685 38.1607L13.6901 37.9143L12.8819 37.3761C10.6895 35.8928 8.64751 34.1987 6.78491 32.318C3.30375 28.758 0 23.8004 0 17.7409C0 13.0357 1.86913 8.52325 5.19619 5.19619C8.52325 1.86913 13.0357 0 17.7409 0ZM17.7409 3.94242C14.0813 3.94242 10.5716 5.39619 7.9839 7.9839C5.39619 10.5716 3.94242 14.0813 3.94242 17.7409C3.94242 22.3181 6.4498 26.3354 9.60177 29.5603C10.957 30.9322 12.4219 32.1914 13.9818 33.3253L14.8846 33.9679C15.1764 34.1716 15.4569 34.3608 15.7263 34.5356L16.4951 35.0284L17.1712 35.4404L17.7409 35.7735L18.6378 35.2433L19.3612 34.7899C19.7463 34.5455 20.1583 34.2715 20.5972 33.9679L21.5 33.3253C23.0599 32.1914 24.5248 30.9322 25.88 29.5603C29.032 26.3374 31.5394 22.3181 31.5394 17.7409C31.5394 14.0813 30.0856 10.5716 27.4979 7.9839C24.9102 5.39619 21.4005 3.94242 17.7409 3.94242ZM17.7409 9.85606C19.8321 9.85606 21.8376 10.6868 23.3163 12.1655C24.795 13.6442 25.6257 15.6497 25.6257 17.7409C25.6257 19.8321 24.795 21.8376 23.3163 23.3163C21.8376 24.795 19.8321 25.6257 17.7409 25.6257C15.6497 25.6257 13.6442 24.795 12.1655 23.3163C10.6868 21.8376 9.85606 19.8321 9.85606 17.7409C9.85606 15.6497 10.6868 13.6442 12.1655 12.1655C13.6442 10.6868 15.6497 9.85606 17.7409 9.85606ZM17.7409 13.7985C16.6953 13.7985 15.6925 14.2138 14.9532 14.9532C14.2138 15.6925 13.7985 16.6953 13.7985 17.7409C13.7985 18.7865 14.2138 19.7893 14.9532 20.5286C15.6925 21.268 16.6953 21.6833 17.7409 21.6833C18.7865 21.6833 19.7893 21.268 20.5286 20.5286C21.268 19.7893 21.6833 18.7865 21.6833 17.7409C21.6833 16.6953 21.268 15.6925 20.5286 14.9532C19.7893 14.2138 18.7865 13.7985 17.7409 13.7985Z" fill="#555555"/>
</svg>
