<svg width="112" height="112" viewBox="0 0 112 112" fill="none" xmlns="http://www.w3.org/2000/svg">
<path d="M105.63 89.53C106.519 88.8374 107.229 87.9402 107.697 86.9147C108.165 85.8892 108.379 84.7658 108.32 83.64C108.261 82.5142 107.93 81.4193 107.357 80.4485C106.784 79.4777 105.985 78.6597 105.028 78.064L105 37.31L98 42V78.05C97.0526 78.6443 96.2613 79.4571 95.6926 80.4201C95.1238 81.3831 94.7941 82.4684 94.7311 83.5851C94.668 84.7017 94.8734 85.8172 95.3301 86.8382C95.7868 87.8591 96.4815 88.7558 97.356 89.453L94.71 92.967C92.3567 95.9608 91.0531 99.6454 91 103.453V112.007H96.705C98.0755 112.007 99.4068 111.55 100.488 110.708C101.57 109.866 102.34 108.688 102.676 107.359L104.993 98.007V112.007H111.993V103.537C111.932 99.7111 110.619 96.0106 108.255 93.002L105.63 89.53ZM56 0L0 28L56 63L112 28L56 0Z" fill="#00A0E3"/>
<path d="M56 69.9995L21 46.6895V58.6595C21 65.0295 41.58 83.9995 56 83.9995C70.42 83.9995 91 65.0295 91 58.6595V46.6895L56 69.9995Z" fill="#00A0E3"/>
</svg>
