<svg width="34" height="51" viewBox="0 0 34 51" fill="none" xmlns="http://www.w3.org/2000/svg">
<path d="M22 38.9286V36.4107C22 33.3683 25.2854 30.4906 27.4167 28.4375C30.4208 25.5451 32 21.6593 32 17.1072C32 8.71434 25.3615 2.00006 17 2.00006C15.0287 1.99452 13.0757 2.3815 11.2533 3.13874C9.43093 3.89598 7.77516 5.00855 6.38119 6.41248C4.98721 7.81641 3.88253 9.48401 3.13066 11.3194C2.37879 13.1548 1.99456 15.1217 2.00006 17.1072C2.00006 21.4966 3.64693 25.6459 6.58338 28.4375C8.70317 30.4529 12 33.3368 12 36.4107V38.9286M13.6667 49H20.3334M12 43.9643H22M17 38.9286V25.5" stroke="#789C18" stroke-width="4" stroke-linecap="round" stroke-linejoin="round"/>
</svg>
