<svg width="90" height="90" viewBox="0 0 90 90" fill="none" xmlns="http://www.w3.org/2000/svg">
<circle cx="45" cy="45" r="45" fill="#3664EF"/>
<path d="M57.6667 66C55.9074 66 54.412 65.3875 53.1806 64.1625C51.9491 62.9375 51.3333 61.45 51.3333 59.7C51.3333 59.49 51.3861 59 51.4917 58.23L36.6611 49.62C36.0981 50.145 35.4472 50.5566 34.7083 50.8548C33.9694 51.153 33.1778 51.3014 32.3333 51.3C30.5741 51.3 29.0787 50.6875 27.8472 49.4625C26.6157 48.2375 26 46.75 26 45C26 43.25 26.6157 41.7625 27.8472 40.5375C29.0787 39.3125 30.5741 38.7 32.3333 38.7C33.1778 38.7 33.9694 38.8491 34.7083 39.1473C35.4472 39.4455 36.0981 39.8564 36.6611 40.38L51.4917 31.77C51.4213 31.525 51.3777 31.2891 51.3608 31.0623C51.3439 30.8355 51.3347 30.5814 51.3333 30.3C51.3333 28.55 51.9491 27.0625 53.1806 25.8375C54.412 24.6125 55.9074 24 57.6667 24C59.4259 24 60.9213 24.6125 62.1528 25.8375C63.3843 27.0625 64 28.55 64 30.3C64 32.05 63.3843 33.5375 62.1528 34.7625C60.9213 35.9875 59.4259 36.6 57.6667 36.6C56.8222 36.6 56.0306 36.4509 55.2917 36.1527C54.5528 35.8545 53.9019 35.4436 53.3389 34.92L38.5083 43.53C38.5787 43.775 38.623 44.0116 38.6413 44.2398C38.6596 44.468 38.6681 44.7214 38.6667 45C38.6653 45.2786 38.6568 45.5327 38.6413 45.7623C38.6259 45.9919 38.5815 46.2278 38.5083 46.47L53.3389 55.08C53.9019 54.555 54.5528 54.1441 55.2917 53.8473C56.0306 53.5505 56.8222 53.4014 57.6667 53.4C59.4259 53.4 60.9213 54.0125 62.1528 55.2375C63.3843 56.4625 64 57.95 64 59.7C64 61.45 63.3843 62.9375 62.1528 64.1625C60.9213 65.3875 59.4259 66 57.6667 66ZM57.6667 61.8C58.2648 61.8 58.7666 61.5991 59.1719 61.1973C59.5772 60.7955 59.7792 60.2964 59.7778 59.7C59.7764 59.1036 59.5737 58.6052 59.1698 58.2048C58.7659 57.8044 58.2648 57.6028 57.6667 57.6C57.0685 57.5972 56.5675 57.7988 56.1636 58.2048C55.7596 58.6108 55.557 59.1092 55.5556 59.7C55.5541 60.2908 55.7568 60.7899 56.1636 61.1973C56.5703 61.6047 57.0713 61.8056 57.6667 61.8ZM32.3333 47.1C32.9315 47.1 33.4332 46.8984 33.8386 46.4952C34.2439 46.092 34.4459 45.5936 34.4444 45C34.443 44.4064 34.2404 43.908 33.8364 43.5048C33.4325 43.1016 32.9315 42.9 32.3333 42.9C31.7352 42.9 31.2341 43.1016 30.8302 43.5048C30.4263 43.908 30.2236 44.4064 30.2222 45C30.2208 45.5936 30.4235 46.0927 30.8302 46.4973C31.237 46.9019 31.738 47.1028 32.3333 47.1ZM57.6667 32.4C58.2648 32.4 58.7666 32.1984 59.1719 31.7952C59.5772 31.392 59.7792 30.8936 59.7778 30.3C59.7764 29.7064 59.5737 29.208 59.1698 28.8048C58.7659 28.4016 58.2648 28.2 57.6667 28.2C57.0685 28.2 56.5675 28.4016 56.1636 28.8048C55.7596 29.208 55.557 29.7064 55.5556 30.3C55.5541 30.8936 55.7568 31.3927 56.1636 31.7973C56.5703 32.2019 57.0713 32.4028 57.6667 32.4Z" fill="white"/>
</svg>
