<svg width="90" height="90" viewBox="0 0 90 90" fill="none" xmlns="http://www.w3.org/2000/svg">
<circle cx="45.0005" cy="45" r="45" fill="#9035EE"/>
<mask id="mask0_8_1009" style="mask-type:luminance" maskUnits="userSpaceOnUse" x="24" y="26" width="44" height="43">
<path d="M46 42.9444C47.0725 42.9444 48.1344 42.7382 49.1252 42.3376C50.1161 41.937 51.0164 41.3497 51.7747 40.6094C52.533 39.8691 53.1346 38.9903 53.545 38.0231C53.9554 37.0558 54.1667 36.0191 54.1667 34.9722C54.1667 33.9253 53.9554 32.8886 53.545 31.9214C53.1346 30.9541 52.533 30.0753 51.7747 29.335C51.0164 28.5947 50.1161 28.0075 49.1252 27.6068C48.1344 27.2062 47.0725 27 46 27C43.8341 27 41.7568 27.8399 40.2253 29.335C38.6937 30.8301 37.8333 32.8579 37.8333 34.9722C37.8333 37.0866 38.6937 39.1144 40.2253 40.6094C41.7568 42.1045 43.8341 42.9444 46 42.9444ZM25 66.6333V68H67V66.6333C67 61.5311 67 58.98 65.9827 57.0302C65.0879 55.3159 63.6601 53.9222 61.904 53.0487C59.9067 52.0556 57.2933 52.0556 52.0667 52.0556H39.9333C34.7067 52.0556 32.0933 52.0556 30.096 53.0487C28.3399 53.9222 26.9121 55.3159 26.0173 57.0302C25 58.98 25 61.5311 25 66.6333Z" fill="#555555" stroke="white" stroke-width="2" stroke-linecap="round" stroke-linejoin="round"/>
</mask>
<g mask="url(#mask0_8_1009)">
<path d="M18 20.1667H74V74.8334H18V20.1667Z" fill="white"/>
</g>
</svg>
