<svg width="87" height="70" viewBox="0 0 87 70" fill="none" xmlns="http://www.w3.org/2000/svg">
<path d="M41.8978 70C41.8978 70 87.8703 69.0208 74.5925 22.0198C74.5925 22.0198 74.1041 53.3777 41.8978 70Z" fill="#94C21A"/>
<path d="M12.3889 27.7277C13.5283 20.7301 16.3086 15.9452 19.9928 12.1563C23.6771 8.36737 28.262 5.58953 33.202 3.87721C38.142 2.16488 43.4007 1.64911 48.567 2.37021C53.7332 3.0913 59.1148 5.16362 63.4307 8.16786L58.6172 14.4729C55.3198 12.1776 51.5188 10.6294 47.5717 10.0785C43.6246 9.52754 39.6494 9.98824 35.8751 11.2965C32.1008 12.6047 28.5507 15.1367 25.7358 18.0315C22.921 20.9263 20.7966 24.5184 19.5278 28.3965L12.3889 27.7277Z" fill="#00A0E3"/>
<path d="M54.2342 23.7871C34.5729 37.639 11.2727 31.549 11.2727 31.549C11.2727 31.6365 11.2262 31.7161 11.1332 32.2177C11.0548 32.6406 10.8774 36.5643 11.1332 39.5974C11.3378 42.0239 12.0091 45.5044 12.3656 47.001C37.0331 47.2112 53.1216 37.0579 58.0824 31.955C66.663 23.7871 73.267 9.60082 71.5927 0C69.6627 11.0815 61.0931 18.8589 54.2342 23.7871Z" fill="#00A0E3"/>
<path d="M21.4113 60.6141C17.6908 58.0348 14.8771 52.4224 14.8771 52.4224C58.0358 50.5118 71.151 23.2378 71.151 23.2378C60.0357 55.4555 21.4113 60.6141 21.4113 60.6141Z" fill="#94C21A"/>
<path d="M6.93164 34.6289V36H0.884766V34.6289H6.93164ZM6.84375 28.4473L1.66406 36H0.427734V34.9922L5.64844 27.4688H6.84375V28.4473ZM6.24023 27.4688V28.8457H0.433594V27.4688H6.24023ZM10.6866 29.6602V36H8.9932V29.6602H10.6866ZM8.88773 28.0078C8.88773 27.7617 8.97367 27.5586 9.14555 27.3984C9.31742 27.2383 9.54789 27.1582 9.83695 27.1582C10.1221 27.1582 10.3506 27.2383 10.5225 27.3984C10.6983 27.5586 10.7862 27.7617 10.7862 28.0078C10.7862 28.2539 10.6983 28.457 10.5225 28.6172C10.3506 28.7773 10.1221 28.8574 9.83695 28.8574C9.54789 28.8574 9.31742 28.7773 9.14555 28.6172C8.97367 28.457 8.88773 28.2539 8.88773 28.0078ZM14.922 35.2852L16.6036 29.6602H18.4141L15.8653 36.9551C15.8106 37.1152 15.7364 37.2871 15.6427 37.4707C15.5528 37.6543 15.4298 37.8281 15.2735 37.9922C15.1212 38.1602 14.9278 38.2969 14.6934 38.4023C14.463 38.5078 14.1798 38.5605 13.8438 38.5605C13.6837 38.5605 13.5528 38.5508 13.4513 38.5312C13.3497 38.5117 13.2286 38.4844 13.088 38.4492V37.2129C13.1309 37.2129 13.1759 37.2129 13.2227 37.2129C13.2696 37.2168 13.3145 37.2188 13.3575 37.2188C13.5802 37.2188 13.7618 37.1934 13.9024 37.1426C14.043 37.0918 14.1563 37.0137 14.2423 36.9082C14.3282 36.8066 14.3966 36.6738 14.4473 36.5098L14.922 35.2852ZM14.2188 29.6602L15.5958 34.2539L15.836 36.041L14.6876 36.1641L12.4083 29.6602H14.2188ZM23.3761 34.5703V31.7461C23.3761 31.543 23.3429 31.3691 23.2765 31.2246C23.2101 31.0762 23.1066 30.9609 22.9659 30.8789C22.8292 30.7969 22.6515 30.7559 22.4327 30.7559C22.2452 30.7559 22.0831 30.7891 21.9464 30.8555C21.8097 30.918 21.7042 31.0098 21.63 31.1309C21.5558 31.248 21.5187 31.3867 21.5187 31.5469H19.8312C19.8312 31.2773 19.8937 31.0215 20.0187 30.7793C20.1437 30.5371 20.3253 30.3242 20.5636 30.1406C20.8019 29.9531 21.0851 29.8066 21.4132 29.7012C21.7452 29.5957 22.1163 29.543 22.5265 29.543C23.0187 29.543 23.4562 29.625 23.839 29.7891C24.2218 29.9531 24.5226 30.1992 24.7413 30.5273C24.964 30.8555 25.0753 31.2656 25.0753 31.7578V34.4707C25.0753 34.8184 25.0968 35.1035 25.1398 35.3262C25.1827 35.5449 25.2452 35.7363 25.3273 35.9004V36H23.6222C23.5402 35.8281 23.4777 35.6133 23.4347 35.3555C23.3956 35.0938 23.3761 34.832 23.3761 34.5703ZM23.5987 32.1387L23.6105 33.0938H22.6671C22.4445 33.0938 22.2511 33.1191 22.087 33.1699C21.923 33.2207 21.7882 33.293 21.6827 33.3867C21.5773 33.4766 21.4991 33.582 21.4484 33.7031C21.4015 33.8242 21.378 33.957 21.378 34.1016C21.378 34.2461 21.4112 34.377 21.4777 34.4941C21.5441 34.6074 21.6398 34.6973 21.7648 34.7637C21.8898 34.8262 22.0362 34.8574 22.2042 34.8574C22.4581 34.8574 22.6788 34.8066 22.8663 34.7051C23.0538 34.6035 23.1984 34.4785 23.2999 34.3301C23.4054 34.1816 23.4601 34.041 23.464 33.9082L23.9093 34.623C23.8468 34.7832 23.7609 34.9492 23.6515 35.1211C23.546 35.293 23.4112 35.4551 23.2472 35.6074C23.0831 35.7559 22.8859 35.8789 22.6554 35.9766C22.4249 36.0703 22.1515 36.1172 21.8351 36.1172C21.4327 36.1172 21.0675 36.0371 20.7394 35.877C20.4152 35.7129 20.1573 35.4883 19.9659 35.2031C19.7784 34.9141 19.6847 34.5859 19.6847 34.2188C19.6847 33.8867 19.7472 33.5918 19.8722 33.334C19.9972 33.0762 20.1808 32.8594 20.423 32.6836C20.6691 32.5039 20.9757 32.3691 21.3429 32.2793C21.7101 32.1855 22.1359 32.1387 22.6202 32.1387H23.5987ZM34.8586 28.9277L32.5383 36H30.6691L33.8391 27.4688H35.0285L34.8586 28.9277ZM36.7863 36L34.4602 28.9277L34.2727 27.4688H35.4738L38.6613 36H36.7863ZM36.6809 32.8242V34.2012H32.175V32.8242H36.6809ZM42.926 34.7988C43.133 34.7988 43.3166 34.7598 43.4768 34.6816C43.637 34.5996 43.762 34.4863 43.8518 34.3418C43.9455 34.1934 43.9944 34.0195 43.9983 33.8203H45.5862C45.5823 34.2656 45.4631 34.6621 45.2287 35.0098C44.9944 35.3535 44.6799 35.625 44.2854 35.8242C43.8909 36.0195 43.4495 36.1172 42.9612 36.1172C42.469 36.1172 42.0393 36.0352 41.6721 35.8711C41.3088 35.707 41.0061 35.4805 40.7639 35.1914C40.5217 34.8984 40.3401 34.5586 40.219 34.1719C40.0979 33.7812 40.0373 33.3633 40.0373 32.918V32.748C40.0373 32.2988 40.0979 31.8809 40.219 31.4941C40.3401 31.1035 40.5217 30.7637 40.7639 30.4746C41.0061 30.1816 41.3088 29.9531 41.6721 29.7891C42.0354 29.625 42.4612 29.543 42.9495 29.543C43.469 29.543 43.9241 29.6426 44.3147 29.8418C44.7092 30.041 45.0178 30.3262 45.2405 30.6973C45.467 31.0645 45.5823 31.5 45.5862 32.0039H43.9983C43.9944 31.793 43.9495 31.6016 43.8635 31.4297C43.7815 31.2578 43.6604 31.1211 43.5002 31.0195C43.344 30.9141 43.1506 30.8613 42.9202 30.8613C42.6741 30.8613 42.4729 30.9141 42.3166 31.0195C42.1604 31.1211 42.0393 31.2617 41.9534 31.4414C41.8674 31.6172 41.8069 31.8184 41.7717 32.0449C41.7405 32.2676 41.7248 32.502 41.7248 32.748V32.918C41.7248 33.1641 41.7405 33.4004 41.7717 33.627C41.803 33.8535 41.8616 34.0547 41.9475 34.2305C42.0373 34.4062 42.1604 34.5449 42.3166 34.6465C42.4729 34.748 42.676 34.7988 42.926 34.7988ZM50.9466 34.5703V31.7461C50.9466 31.543 50.9134 31.3691 50.847 31.2246C50.7805 31.0762 50.677 30.9609 50.5364 30.8789C50.3997 30.7969 50.222 30.7559 50.0032 30.7559C49.8157 30.7559 49.6536 30.7891 49.5169 30.8555C49.3802 30.918 49.2747 31.0098 49.2005 31.1309C49.1263 31.248 49.0891 31.3867 49.0891 31.5469H47.4016C47.4016 31.2773 47.4641 31.0215 47.5891 30.7793C47.7141 30.5371 47.8958 30.3242 48.1341 30.1406C48.3723 29.9531 48.6555 29.8066 48.9837 29.7012C49.3157 29.5957 49.6868 29.543 50.097 29.543C50.5891 29.543 51.0266 29.625 51.4095 29.7891C51.7923 29.9531 52.093 30.1992 52.3118 30.5273C52.5345 30.8555 52.6458 31.2656 52.6458 31.7578V34.4707C52.6458 34.8184 52.6673 35.1035 52.7102 35.3262C52.7532 35.5449 52.8157 35.7363 52.8977 35.9004V36H51.1927C51.1106 35.8281 51.0481 35.6133 51.0052 35.3555C50.9661 35.0938 50.9466 34.832 50.9466 34.5703ZM51.1692 32.1387L51.1809 33.0938H50.2376C50.0149 33.0938 49.8216 33.1191 49.6575 33.1699C49.4934 33.2207 49.3587 33.293 49.2532 33.3867C49.1477 33.4766 49.0696 33.582 49.0188 33.7031C48.972 33.8242 48.9485 33.957 48.9485 34.1016C48.9485 34.2461 48.9817 34.377 49.0481 34.4941C49.1145 34.6074 49.2102 34.6973 49.3352 34.7637C49.4602 34.8262 49.6067 34.8574 49.7747 34.8574C50.0286 34.8574 50.2493 34.8066 50.4368 34.7051C50.6243 34.6035 50.7688 34.4785 50.8704 34.3301C50.9759 34.1816 51.0305 34.041 51.0345 33.9082L51.4798 34.623C51.4173 34.7832 51.3313 34.9492 51.222 35.1211C51.1165 35.293 50.9817 35.4551 50.8177 35.6074C50.6536 35.7559 50.4563 35.8789 50.2259 35.9766C49.9954 36.0703 49.722 36.1172 49.4055 36.1172C49.0032 36.1172 48.638 36.0371 48.3098 35.877C47.9856 35.7129 47.7278 35.4883 47.5364 35.2031C47.3489 34.9141 47.2552 34.5859 47.2552 34.2188C47.2552 33.8867 47.3177 33.5918 47.4427 33.334C47.5677 33.0762 47.7513 32.8594 47.9934 32.6836C48.2395 32.5039 48.5462 32.3691 48.9134 32.2793C49.2805 32.1855 49.7063 32.1387 50.1907 32.1387H51.1692ZM58.6507 34.6172V27H60.3499V36H58.8206L58.6507 34.6172ZM54.6429 32.9062V32.7832C54.6429 32.2988 54.6976 31.8594 54.807 31.4648C54.9163 31.0664 55.0765 30.7246 55.2874 30.4395C55.4984 30.1543 55.7581 29.9336 56.0667 29.7773C56.3753 29.6211 56.7269 29.543 57.1214 29.543C57.4925 29.543 57.8167 29.6211 58.0941 29.7773C58.3753 29.9336 58.6136 30.1562 58.8089 30.4453C59.0081 30.7305 59.1683 31.0684 59.2894 31.459C59.4105 31.8457 59.4984 32.2695 59.553 32.7305V33C59.4984 33.4414 59.4105 33.8516 59.2894 34.2305C59.1683 34.6094 59.0081 34.9414 58.8089 35.2266C58.6136 35.5078 58.3753 35.7266 58.0941 35.8828C57.8128 36.0391 57.4847 36.1172 57.1097 36.1172C56.7152 36.1172 56.3636 36.0371 56.055 35.877C55.7503 35.7168 55.4925 35.4922 55.2816 35.2031C55.0745 34.9141 54.9163 34.5742 54.807 34.1836C54.6976 33.793 54.6429 33.3672 54.6429 32.9062ZM56.3304 32.7832V32.9062C56.3304 33.168 56.3499 33.4121 56.389 33.6387C56.432 33.8652 56.5003 34.0664 56.5941 34.2422C56.6917 34.4141 56.8167 34.5488 56.9691 34.6465C57.1253 34.7402 57.3148 34.7871 57.5374 34.7871C57.8265 34.7871 58.0648 34.7227 58.2523 34.5938C58.4398 34.4609 58.5823 34.2793 58.68 34.0488C58.7816 33.8184 58.8402 33.5527 58.8558 33.252V32.4844C58.8441 32.2383 58.8089 32.0176 58.7503 31.8223C58.6956 31.623 58.6136 31.4531 58.5042 31.3125C58.3988 31.1719 58.2659 31.0625 58.1058 30.9844C57.9495 30.9062 57.764 30.8672 57.5491 30.8672C57.3304 30.8672 57.1429 30.918 56.9866 31.0195C56.8304 31.1172 56.7034 31.252 56.6058 31.4238C56.512 31.5957 56.4417 31.7988 56.3948 32.0332C56.3519 32.2637 56.3304 32.5137 56.3304 32.7832ZM65.5462 36.1172C65.0541 36.1172 64.6127 36.0391 64.222 35.8828C63.8314 35.7227 63.4994 35.502 63.2259 35.2207C62.9564 34.9395 62.7494 34.6133 62.6048 34.2422C62.4603 33.8672 62.388 33.4688 62.388 33.0469V32.8125C62.388 32.332 62.4564 31.8926 62.5931 31.4941C62.7298 31.0957 62.9252 30.75 63.1791 30.457C63.4369 30.1641 63.7494 29.9395 64.1166 29.7832C64.4837 29.623 64.8978 29.543 65.3587 29.543C65.808 29.543 66.2064 29.6172 66.5541 29.7656C66.9017 29.9141 67.1927 30.125 67.4271 30.3984C67.6654 30.6719 67.8451 31 67.9662 31.3828C68.0873 31.7617 68.1478 32.1836 68.1478 32.6484V33.3516H63.1087V32.2266H66.4896V32.0977C66.4896 31.8633 66.4466 31.6543 66.3607 31.4707C66.2787 31.2832 66.1537 31.1348 65.9857 31.0254C65.8177 30.916 65.6029 30.8613 65.3412 30.8613C65.1185 30.8613 64.9271 30.9102 64.767 31.0078C64.6068 31.1055 64.4759 31.2422 64.3744 31.418C64.2767 31.5938 64.2025 31.8008 64.1517 32.0391C64.1048 32.2734 64.0814 32.5312 64.0814 32.8125V33.0469C64.0814 33.3008 64.1166 33.5352 64.1869 33.75C64.2611 33.9648 64.3646 34.1504 64.4974 34.3066C64.6341 34.4629 64.7982 34.584 64.9896 34.6699C65.1849 34.7559 65.4056 34.7988 65.6517 34.7988C65.9564 34.7988 66.2396 34.7402 66.5013 34.623C66.767 34.502 66.9955 34.3203 67.1869 34.0781L68.0072 34.9688C67.8744 35.1602 67.6927 35.3438 67.4623 35.5195C67.2357 35.6953 66.9623 35.8398 66.642 35.9531C66.3216 36.0625 65.9564 36.1172 65.5462 36.1172ZM71.7562 30.9727V36H70.0629V29.6602H71.6508L71.7562 30.9727ZM71.5219 32.6074H71.0531C71.0531 32.166 71.1059 31.7598 71.2113 31.3887C71.3207 31.0137 71.4789 30.6895 71.6859 30.416C71.8969 30.1387 72.1566 29.9238 72.4652 29.7715C72.7738 29.6191 73.1312 29.543 73.5375 29.543C73.8187 29.543 74.0766 29.5859 74.3109 29.6719C74.5453 29.7539 74.7465 29.8848 74.9145 30.0645C75.0863 30.2402 75.2191 30.4707 75.3129 30.7559C75.4066 31.0371 75.4535 31.375 75.4535 31.7695V36H73.766V31.957C73.766 31.668 73.727 31.4453 73.6488 31.2891C73.5707 31.1328 73.4594 31.0234 73.3148 30.9609C73.1742 30.8984 73.0043 30.8672 72.8051 30.8672C72.5863 30.8672 72.3949 30.9121 72.2309 31.002C72.0707 31.0918 71.9379 31.2168 71.8324 31.377C71.727 31.5332 71.6488 31.7168 71.598 31.9277C71.5473 32.1387 71.5219 32.3652 71.5219 32.6074ZM75.2953 32.4141L74.6918 32.4902C74.6918 32.0762 74.7426 31.6914 74.8441 31.3359C74.9496 30.9805 75.1039 30.668 75.307 30.3984C75.5141 30.1289 75.7699 29.9199 76.0746 29.7715C76.3793 29.6191 76.7309 29.543 77.1293 29.543C77.434 29.543 77.7113 29.5879 77.9613 29.6777C78.2113 29.7637 78.4242 29.9023 78.6 30.0938C78.7797 30.2812 78.9164 30.5273 79.0102 30.832C79.1078 31.1367 79.1566 31.5098 79.1566 31.9512V36H77.4633V31.9512C77.4633 31.6582 77.4242 31.4355 77.3461 31.2832C77.2719 31.127 77.1625 31.0195 77.018 30.9609C76.8773 30.8984 76.7094 30.8672 76.5141 30.8672C76.3109 30.8672 76.1332 30.9082 75.9809 30.9902C75.8285 31.0684 75.7016 31.1777 75.6 31.3184C75.4984 31.459 75.4223 31.623 75.3715 31.8105C75.3207 31.9941 75.2953 32.1953 75.2953 32.4141ZM83.3041 35.2852L84.9858 29.6602H86.7963L84.2475 36.9551C84.1928 37.1152 84.1186 37.2871 84.0248 37.4707C83.935 37.6543 83.812 37.8281 83.6557 37.9922C83.5034 38.1602 83.31 38.2969 83.0756 38.4023C82.8452 38.5078 82.562 38.5605 82.226 38.5605C82.0659 38.5605 81.935 38.5508 81.8334 38.5312C81.7319 38.5117 81.6108 38.4844 81.4702 38.4492V37.2129C81.5131 37.2129 81.558 37.2129 81.6049 37.2129C81.6518 37.2168 81.6967 37.2188 81.7397 37.2188C81.9623 37.2188 82.144 37.1934 82.2846 37.1426C82.4252 37.0918 82.5385 37.0137 82.6245 36.9082C82.7104 36.8066 82.7787 36.6738 82.8295 36.5098L83.3041 35.2852ZM82.601 29.6602L83.978 34.2539L84.2182 36.041L83.0698 36.1641L80.7905 29.6602H82.601Z" fill="black"/>
<path d="M18.748 45L17.134 43.134V45H16.45V40.83H17.134V42.732L18.754 40.83H19.612L17.8 42.918L19.642 45H18.748ZM21.4109 41.382V42.606H22.8509V43.164H21.4109V44.442H23.0309V45H20.7269V40.824H23.0309V41.382H21.4109ZM27.4434 40.83L26.0634 43.488V45H25.3794V43.488L23.9934 40.83H24.7554L25.7214 42.876L26.6874 40.83H27.4434ZM33.1988 40.83V41.388H32.0888V45H31.4048V41.388H30.2888V40.83H33.1988ZM36.2735 45.042C35.8855 45.042 35.5275 44.952 35.1995 44.772C34.8755 44.588 34.6175 44.334 34.4255 44.01C34.2375 43.682 34.1435 43.314 34.1435 42.906C34.1435 42.498 34.2375 42.132 34.4255 41.808C34.6175 41.484 34.8755 41.232 35.1995 41.052C35.5275 40.868 35.8855 40.776 36.2735 40.776C36.6655 40.776 37.0235 40.868 37.3475 41.052C37.6755 41.232 37.9335 41.484 38.1215 41.808C38.3095 42.132 38.4035 42.498 38.4035 42.906C38.4035 43.314 38.3095 43.682 38.1215 44.01C37.9335 44.334 37.6755 44.588 37.3475 44.772C37.0235 44.952 36.6655 45.042 36.2735 45.042ZM36.2735 44.448C36.5495 44.448 36.7955 44.386 37.0115 44.262C37.2275 44.134 37.3955 43.954 37.5155 43.722C37.6395 43.486 37.7015 43.214 37.7015 42.906C37.7015 42.598 37.6395 42.328 37.5155 42.096C37.3955 41.864 37.2275 41.686 37.0115 41.562C36.7955 41.438 36.5495 41.376 36.2735 41.376C35.9975 41.376 35.7515 41.438 35.5355 41.562C35.3195 41.686 35.1495 41.864 35.0255 42.096C34.9055 42.328 34.8455 42.598 34.8455 42.906C34.8455 43.214 34.9055 43.486 35.0255 43.722C35.1495 43.954 35.3195 44.134 35.5355 44.262C35.7515 44.386 35.9975 44.448 36.2735 44.448ZM42.9692 45.042C42.6892 45.042 42.4372 44.994 42.2132 44.898C41.9892 44.798 41.8132 44.658 41.6852 44.478C41.5572 44.298 41.4932 44.088 41.4932 43.848H42.2252C42.2412 44.028 42.3112 44.176 42.4352 44.292C42.5632 44.408 42.7412 44.466 42.9692 44.466C43.2052 44.466 43.3892 44.41 43.5212 44.298C43.6532 44.182 43.7192 44.034 43.7192 43.854C43.7192 43.714 43.6772 43.6 43.5932 43.512C43.5132 43.424 43.4112 43.356 43.2872 43.308C43.1672 43.26 42.9992 43.208 42.7832 43.152C42.5112 43.08 42.2892 43.008 42.1172 42.936C41.9492 42.86 41.8052 42.744 41.6852 42.588C41.5652 42.432 41.5052 42.224 41.5052 41.964C41.5052 41.724 41.5652 41.514 41.6852 41.334C41.8052 41.154 41.9732 41.016 42.1892 40.92C42.4052 40.824 42.6552 40.776 42.9392 40.776C43.3432 40.776 43.6732 40.878 43.9292 41.082C44.1892 41.282 44.3332 41.558 44.3612 41.91H43.6052C43.5932 41.758 43.5212 41.628 43.3892 41.52C43.2572 41.412 43.0832 41.358 42.8672 41.358C42.6712 41.358 42.5112 41.408 42.3872 41.508C42.2632 41.608 42.2012 41.752 42.2012 41.94C42.2012 42.068 42.2392 42.174 42.3152 42.258C42.3952 42.338 42.4952 42.402 42.6152 42.45C42.7352 42.498 42.8992 42.55 43.1072 42.606C43.3832 42.682 43.6072 42.758 43.7792 42.834C43.9552 42.91 44.1032 43.028 44.2232 43.188C44.3472 43.344 44.4092 43.554 44.4092 43.818C44.4092 44.03 44.3512 44.23 44.2352 44.418C44.1232 44.606 43.9572 44.758 43.7372 44.874C43.5212 44.986 43.2652 45.042 42.9692 45.042ZM46.3743 40.83V43.488C46.3743 43.804 46.4563 44.042 46.6203 44.202C46.7883 44.362 47.0203 44.442 47.3163 44.442C47.6163 44.442 47.8483 44.362 48.0123 44.202C48.1803 44.042 48.2643 43.804 48.2643 43.488V40.83H48.9483V43.476C48.9483 43.816 48.8743 44.104 48.7263 44.34C48.5783 44.576 48.3803 44.752 48.1323 44.868C47.8843 44.984 47.6103 45.042 47.3103 45.042C47.0103 45.042 46.7363 44.984 46.4883 44.868C46.2443 44.752 46.0503 44.576 45.9063 44.34C45.7623 44.104 45.6903 43.816 45.6903 43.476V40.83H46.3743ZM50.0908 42.906C50.0908 42.498 50.1848 42.132 50.3728 41.808C50.5648 41.484 50.8228 41.232 51.1468 41.052C51.4748 40.868 51.8328 40.776 52.2208 40.776C52.6648 40.776 53.0588 40.886 53.4028 41.106C53.7508 41.322 54.0028 41.63 54.1588 42.03H53.3368C53.2288 41.81 53.0788 41.646 52.8868 41.538C52.6948 41.43 52.4728 41.376 52.2208 41.376C51.9448 41.376 51.6988 41.438 51.4828 41.562C51.2668 41.686 51.0968 41.864 50.9728 42.096C50.8528 42.328 50.7928 42.598 50.7928 42.906C50.7928 43.214 50.8528 43.484 50.9728 43.716C51.0968 43.948 51.2668 44.128 51.4828 44.256C51.6988 44.38 51.9448 44.442 52.2208 44.442C52.4728 44.442 52.6948 44.388 52.8868 44.28C53.0788 44.172 53.2288 44.008 53.3368 43.788H54.1588C54.0028 44.188 53.7508 44.496 53.4028 44.712C53.0588 44.928 52.6648 45.036 52.2208 45.036C51.8288 45.036 51.4708 44.946 51.1468 44.766C50.8228 44.582 50.5648 44.328 50.3728 44.004C50.1848 43.68 50.0908 43.314 50.0908 42.906ZM55.2115 42.906C55.2115 42.498 55.3055 42.132 55.4935 41.808C55.6855 41.484 55.9435 41.232 56.2675 41.052C56.5955 40.868 56.9535 40.776 57.3415 40.776C57.7855 40.776 58.1795 40.886 58.5235 41.106C58.8715 41.322 59.1235 41.63 59.2795 42.03H58.4575C58.3495 41.81 58.1995 41.646 58.0075 41.538C57.8155 41.43 57.5935 41.376 57.3415 41.376C57.0655 41.376 56.8195 41.438 56.6035 41.562C56.3875 41.686 56.2175 41.864 56.0935 42.096C55.9735 42.328 55.9135 42.598 55.9135 42.906C55.9135 43.214 55.9735 43.484 56.0935 43.716C56.2175 43.948 56.3875 44.128 56.6035 44.256C56.8195 44.38 57.0655 44.442 57.3415 44.442C57.5935 44.442 57.8155 44.388 58.0075 44.28C58.1995 44.172 58.3495 44.008 58.4575 43.788H59.2795C59.1235 44.188 58.8715 44.496 58.5235 44.712C58.1795 44.928 57.7855 45.036 57.3415 45.036C56.9495 45.036 56.5915 44.946 56.2675 44.766C55.9435 44.582 55.6855 44.328 55.4935 44.004C55.3055 43.68 55.2115 43.314 55.2115 42.906ZM61.2441 41.382V42.606H62.6841V43.164H61.2441V44.442H62.8641V45H60.5601V40.824H62.8641V41.382H61.2441ZM65.5606 45.042C65.2806 45.042 65.0286 44.994 64.8046 44.898C64.5806 44.798 64.4046 44.658 64.2766 44.478C64.1486 44.298 64.0846 44.088 64.0846 43.848H64.8166C64.8326 44.028 64.9026 44.176 65.0266 44.292C65.1546 44.408 65.3326 44.466 65.5606 44.466C65.7966 44.466 65.9806 44.41 66.1126 44.298C66.2446 44.182 66.3106 44.034 66.3106 43.854C66.3106 43.714 66.2686 43.6 66.1846 43.512C66.1046 43.424 66.0026 43.356 65.8786 43.308C65.7586 43.26 65.5906 43.208 65.3746 43.152C65.1026 43.08 64.8806 43.008 64.7086 42.936C64.5406 42.86 64.3966 42.744 64.2766 42.588C64.1566 42.432 64.0966 42.224 64.0966 41.964C64.0966 41.724 64.1566 41.514 64.2766 41.334C64.3966 41.154 64.5646 41.016 64.7806 40.92C64.9966 40.824 65.2466 40.776 65.5306 40.776C65.9346 40.776 66.2646 40.878 66.5206 41.082C66.7806 41.282 66.9246 41.558 66.9526 41.91H66.1966C66.1846 41.758 66.1126 41.628 65.9806 41.52C65.8486 41.412 65.6746 41.358 65.4586 41.358C65.2626 41.358 65.1026 41.408 64.9786 41.508C64.8546 41.608 64.7926 41.752 64.7926 41.94C64.7926 42.068 64.8306 42.174 64.9066 42.258C64.9866 42.338 65.0866 42.402 65.2066 42.45C65.3266 42.498 65.4906 42.55 65.6986 42.606C65.9746 42.682 66.1986 42.758 66.3706 42.834C66.5466 42.91 66.6946 43.028 66.8146 43.188C66.9386 43.344 67.0006 43.554 67.0006 43.818C67.0006 44.03 66.9426 44.23 66.8266 44.418C66.7146 44.606 66.5486 44.758 66.3286 44.874C66.1126 44.986 65.8566 45.042 65.5606 45.042ZM69.6617 45.042C69.3817 45.042 69.1297 44.994 68.9057 44.898C68.6817 44.798 68.5057 44.658 68.3777 44.478C68.2497 44.298 68.1857 44.088 68.1857 43.848H68.9177C68.9337 44.028 69.0037 44.176 69.1277 44.292C69.2557 44.408 69.4337 44.466 69.6617 44.466C69.8977 44.466 70.0817 44.41 70.2137 44.298C70.3457 44.182 70.4117 44.034 70.4117 43.854C70.4117 43.714 70.3697 43.6 70.2857 43.512C70.2057 43.424 70.1037 43.356 69.9797 43.308C69.8597 43.26 69.6917 43.208 69.4757 43.152C69.2037 43.08 68.9817 43.008 68.8097 42.936C68.6417 42.86 68.4977 42.744 68.3777 42.588C68.2577 42.432 68.1977 42.224 68.1977 41.964C68.1977 41.724 68.2577 41.514 68.3777 41.334C68.4977 41.154 68.6657 41.016 68.8817 40.92C69.0977 40.824 69.3477 40.776 69.6317 40.776C70.0357 40.776 70.3657 40.878 70.6217 41.082C70.8817 41.282 71.0257 41.558 71.0537 41.91H70.2977C70.2857 41.758 70.2137 41.628 70.0817 41.52C69.9497 41.412 69.7757 41.358 69.5597 41.358C69.3637 41.358 69.2037 41.408 69.0797 41.508C68.9557 41.608 68.8937 41.752 68.8937 41.94C68.8937 42.068 68.9317 42.174 69.0077 42.258C69.0877 42.338 69.1877 42.402 69.3077 42.45C69.4277 42.498 69.5917 42.55 69.7997 42.606C70.0757 42.682 70.2997 42.758 70.4717 42.834C70.6477 42.91 70.7957 43.028 70.9157 43.188C71.0397 43.344 71.1017 43.554 71.1017 43.818C71.1017 44.03 71.0437 44.23 70.9277 44.418C70.8157 44.606 70.6497 44.758 70.4297 44.874C70.2137 44.986 69.9577 45.042 69.6617 45.042Z" fill="black"/>
</svg>
