<svg width="80" height="80" viewBox="0 0 80 80" fill="none" xmlns="http://www.w3.org/2000/svg">
<circle cx="40" cy="40" r="40" fill="#C1E3F2"/>
<path d="M45 54.0714V51.3393C45 48.038 48.614 44.9154 50.9583 42.6875C54.2629 39.549 56 35.3324 56 30.3929C56 21.2858 48.6976 14.0001 39.5 14.0001C37.3315 13.9941 35.1832 14.414 33.1786 15.2357C31.174 16.0573 29.3527 17.2646 27.8193 18.788C26.2859 20.3114 25.0708 22.1209 24.2437 24.1125C23.4167 26.1041 22.994 28.2385 23.0001 30.3929C23.0001 35.1559 24.8116 39.6583 28.0417 42.6875C30.3735 44.8744 34 48.0038 34 51.3393V54.0714M35.8334 65H43.1667M34 59.5357H45M39.5 54.0714V39.5" stroke="#161616" stroke-width="2.5" stroke-linecap="round" stroke-linejoin="round"/>
</svg>
