<svg width="62" height="62" viewBox="0 0 62 62" fill="none" xmlns="http://www.w3.org/2000/svg">
<path d="M59.0356 14.7638H62V29.5275H59.0356V14.7638ZM56.0906 8.85437H59.0356V14.7638H56.0906V8.85437ZM53.1456 5.90937H56.0906V8.85437H53.1456V5.90937ZM50.1812 17.7087H53.1456V26.5631H50.1812V17.7087ZM47.2362 2.945H53.1456V5.90937H47.2362V2.945ZM17.7087 53.1456V56.0906H20.6731V53.1456H29.5275V56.0906H32.4725V53.1456H47.2362V50.1812H50.1812V35.4175H47.2362V44.2719H2.945V17.7087H0V50.1812H2.945V53.1456H17.7087ZM47.2362 14.7638H50.1812V17.7087H47.2362V14.7638ZM44.2913 11.7994H47.2362V14.7638H44.2913V11.7994ZM32.4725 0H47.2362V2.945H32.4725V0ZM41.3269 20.6537H44.2913V26.5631H41.3269V20.6537ZM35.4175 8.85437H44.2913V11.7994H35.4175V8.85437Z" fill="#00A0E3"/>
<path d="M35.4176 17.7092H41.3269V20.6542H35.4176V17.7092ZM35.4176 26.5635H41.3269V29.5279H35.4176V26.5635ZM32.4726 20.6542H35.4176V26.5635H32.4726V20.6542ZM17.7088 59.036V56.091H14.7638V62.0004H35.4176V56.091H32.4726V59.036H17.7088ZM26.5632 35.4179H29.5276V38.3823H26.5632V35.4179ZM23.6182 29.5279H26.5632V32.4729H23.6182V29.5279ZM14.7638 38.3823H26.5632V41.3273H14.7638V38.3823ZM14.7638 29.5279H17.7088V32.4729H14.7638V29.5279ZM11.7994 35.4179H14.7638V38.3823H11.7994V35.4179ZM2.94507 14.7642H26.5632V17.7092H2.94507V14.7642Z" fill="#00A0E3"/>
</svg>
