<svg width="92" height="92" viewBox="0 0 92 92" fill="none" xmlns="http://www.w3.org/2000/svg">
<circle cx="46.0002" cy="46" r="45" transform="rotate(0.779112 46.0002 46)" fill="#EE9D00"/>
<path d="M34.049 66.8394L34.1124 62.1732L43.4449 62.3001L43.5432 55.0674C41.6437 54.6138 39.9538 53.7841 38.4736 52.5786C36.9934 51.373 35.9148 49.8703 35.2376 48.0705C32.326 47.6809 29.9036 46.3746 27.9706 44.1516C26.0375 41.9287 25.0903 39.3388 25.129 36.382L25.1607 34.0488C25.1781 32.7656 25.6504 31.6737 26.5774 30.7731C27.5044 29.8725 28.6087 29.4302 29.8904 29.4461L34.5566 29.5095L34.6201 24.8433L57.9512 25.1606L57.8878 29.8268L62.554 29.8903C63.8372 29.9077 64.9299 30.3799 65.8321 31.307C66.7342 32.234 67.1758 33.3383 67.1568 34.6199L67.1251 36.9531C67.0849 39.9083 66.0676 42.4715 64.0732 44.6426C62.0789 46.8137 59.6219 48.0536 56.7023 48.3624C55.978 50.1416 54.8597 51.6144 53.3472 52.7808C51.8348 53.9473 50.1222 54.7306 48.2095 55.1309L48.1111 62.3635L57.4436 62.4904L57.3801 67.1567L34.049 66.8394ZM34.3726 43.0416L34.4932 34.1758L29.8269 34.1123L29.7952 36.4454C29.7751 37.9231 30.1847 39.2611 31.0241 40.4595C31.8634 41.6579 32.9796 42.5186 34.3726 43.0416ZM45.9366 50.6662C47.8809 50.6927 49.5428 50.0346 50.9223 48.6922C52.3018 47.3497 53.0047 45.7063 53.0312 43.762L53.2215 29.7633L39.2228 29.573L39.0325 43.5717C39.006 45.5159 39.6641 47.1778 41.0065 48.5573C42.349 49.9368 43.9924 50.6398 45.9366 50.6662ZM57.7038 43.3589C59.1105 42.8724 60.2497 42.0416 61.1213 40.8664C61.9929 39.6913 62.4388 38.3657 62.4588 36.8896L62.4906 34.5565L57.8243 34.493L57.7038 43.3589Z" fill="white"/>
</svg>
