<svg width="61" height="49" viewBox="0 0 61 49" fill="none" xmlns="http://www.w3.org/2000/svg">
<path d="M28.4046 48.3033C29.0056 48.7998 29.7743 49.0466 30.5519 48.9927C31.3316 48.942 32.0629 48.597 32.5979 48.0275L59.9269 19.0906C60.2085 18.7563 60.4158 18.3659 60.535 17.9453C60.6543 17.5248 60.6826 17.0837 60.6183 16.6513V16.6351C60.5549 16.1354 60.3596 15.6616 60.0526 15.2623C59.9735 15.1488 58.248 12.8453 56.2203 10.1424L55.543 9.23607L53.4484 6.44801L52.5603 5.26182C51.0193 3.20576 49.8209 1.60795 49.7216 1.47007C49.6609 1.3803 49.5931 1.29554 49.5188 1.21661C49.23 0.839324 48.8584 0.533418 48.4327 0.322482C48.0069 0.111545 47.5384 0.0012146 47.0633 0H13.7344C13.2626 0.00900928 12.7988 0.124145 12.3776 0.336865C11.9564 0.549584 11.5885 0.854427 11.3012 1.22877L0.777522 15.1224C0.686639 15.2395 0.600067 15.3599 0.51798 15.4833C0.127306 16.0433 -0.0516922 16.7238 0.0129326 17.4035C0.0775575 18.0831 0.3816 18.7177 0.870795 19.194L28.0964 48.0113C28.1552 48.0762 28.3357 48.2445 28.4046 48.3033ZM5.39251 18.0707H18.3838L27.701 41.6748L5.39251 18.0707ZM20.6285 16.043L29.2664 4.05535H31.3934L40.0293 16.045L20.6285 16.043ZM20.5636 18.0707H40.0942L30.3289 42.8103L20.5636 18.0707ZM42.2739 18.0707H55.322L32.9061 41.8087L42.2739 18.0707ZM56.2689 17.069L56.3196 17.0163L56.2689 16.9473V17.069ZM55.5917 16.045H42.5274L33.8895 4.05535H46.5908L50.2062 8.8792L52.3069 11.6632L53.0368 12.6365L55.5917 16.045ZM18.1304 16.045H5.15933L14.2474 4.05535H26.7663L18.1304 16.045Z" fill="#94C21A"/>
</svg>
