<svg width="87" height="22" viewBox="0 0 87 22" fill="none" xmlns="http://www.w3.org/2000/svg">
<path d="M6.93164 10.6289V12H0.884766V10.6289H6.93164ZM6.84375 4.44727L1.66406 12H0.427734V10.9922L5.64844 3.46875H6.84375V4.44727ZM6.24023 3.46875V4.8457H0.433594V3.46875H6.24023ZM10.6866 5.66016V12H8.9932V5.66016H10.6866ZM8.88773 4.00781C8.88773 3.76172 8.97367 3.55859 9.14555 3.39844C9.31742 3.23828 9.54789 3.1582 9.83695 3.1582C10.1221 3.1582 10.3506 3.23828 10.5225 3.39844C10.6983 3.55859 10.7862 3.76172 10.7862 4.00781C10.7862 4.25391 10.6983 4.45703 10.5225 4.61719C10.3506 4.77734 10.1221 4.85742 9.83695 4.85742C9.54789 4.85742 9.31742 4.77734 9.14555 4.61719C8.97367 4.45703 8.88773 4.25391 8.88773 4.00781ZM14.922 11.2852L16.6036 5.66016H18.4141L15.8653 12.9551C15.8106 13.1152 15.7364 13.2871 15.6427 13.4707C15.5528 13.6543 15.4298 13.8281 15.2735 13.9922C15.1212 14.1602 14.9278 14.2969 14.6934 14.4023C14.463 14.5078 14.1798 14.5605 13.8438 14.5605C13.6837 14.5605 13.5528 14.5508 13.4513 14.5312C13.3497 14.5117 13.2286 14.4844 13.088 14.4492V13.2129C13.1309 13.2129 13.1759 13.2129 13.2227 13.2129C13.2696 13.2168 13.3145 13.2188 13.3575 13.2188C13.5802 13.2188 13.7618 13.1934 13.9024 13.1426C14.043 13.0918 14.1563 13.0137 14.2423 12.9082C14.3282 12.8066 14.3966 12.6738 14.4473 12.5098L14.922 11.2852ZM14.2188 5.66016L15.5958 10.2539L15.836 12.041L14.6876 12.1641L12.4083 5.66016H14.2188ZM23.3761 10.5703V7.74609C23.3761 7.54297 23.3429 7.36914 23.2765 7.22461C23.2101 7.07617 23.1066 6.96094 22.9659 6.87891C22.8292 6.79688 22.6515 6.75586 22.4327 6.75586C22.2452 6.75586 22.0831 6.78906 21.9464 6.85547C21.8097 6.91797 21.7042 7.00977 21.63 7.13086C21.5558 7.24805 21.5187 7.38672 21.5187 7.54688H19.8312C19.8312 7.27734 19.8937 7.02148 20.0187 6.7793C20.1437 6.53711 20.3253 6.32422 20.5636 6.14062C20.8019 5.95312 21.0851 5.80664 21.4132 5.70117C21.7452 5.5957 22.1163 5.54297 22.5265 5.54297C23.0187 5.54297 23.4562 5.625 23.839 5.78906C24.2218 5.95312 24.5226 6.19922 24.7413 6.52734C24.964 6.85547 25.0753 7.26562 25.0753 7.75781V10.4707C25.0753 10.8184 25.0968 11.1035 25.1398 11.3262C25.1827 11.5449 25.2452 11.7363 25.3273 11.9004V12H23.6222C23.5402 11.8281 23.4777 11.6133 23.4347 11.3555C23.3956 11.0938 23.3761 10.832 23.3761 10.5703ZM23.5987 8.13867L23.6105 9.09375H22.6671C22.4445 9.09375 22.2511 9.11914 22.087 9.16992C21.923 9.2207 21.7882 9.29297 21.6827 9.38672C21.5773 9.47656 21.4991 9.58203 21.4484 9.70312C21.4015 9.82422 21.378 9.95703 21.378 10.1016C21.378 10.2461 21.4112 10.377 21.4777 10.4941C21.5441 10.6074 21.6398 10.6973 21.7648 10.7637C21.8898 10.8262 22.0362 10.8574 22.2042 10.8574C22.4581 10.8574 22.6788 10.8066 22.8663 10.7051C23.0538 10.6035 23.1984 10.4785 23.2999 10.3301C23.4054 10.1816 23.4601 10.041 23.464 9.9082L23.9093 10.623C23.8468 10.7832 23.7609 10.9492 23.6515 11.1211C23.546 11.293 23.4112 11.4551 23.2472 11.6074C23.0831 11.7559 22.8859 11.8789 22.6554 11.9766C22.4249 12.0703 22.1515 12.1172 21.8351 12.1172C21.4327 12.1172 21.0675 12.0371 20.7394 11.877C20.4152 11.7129 20.1573 11.4883 19.9659 11.2031C19.7784 10.9141 19.6847 10.5859 19.6847 10.2188C19.6847 9.88672 19.7472 9.5918 19.8722 9.33398C19.9972 9.07617 20.1808 8.85938 20.423 8.68359C20.6691 8.50391 20.9757 8.36914 21.3429 8.2793C21.7101 8.18555 22.1359 8.13867 22.6202 8.13867H23.5987ZM34.8586 4.92773L32.5383 12H30.6691L33.8391 3.46875H35.0285L34.8586 4.92773ZM36.7863 12L34.4602 4.92773L34.2727 3.46875H35.4738L38.6613 12H36.7863ZM36.6809 8.82422V10.2012H32.175V8.82422H36.6809ZM42.926 10.7988C43.133 10.7988 43.3166 10.7598 43.4768 10.6816C43.637 10.5996 43.762 10.4863 43.8518 10.3418C43.9455 10.1934 43.9944 10.0195 43.9983 9.82031H45.5862C45.5823 10.2656 45.4631 10.6621 45.2287 11.0098C44.9944 11.3535 44.6799 11.625 44.2854 11.8242C43.8909 12.0195 43.4495 12.1172 42.9612 12.1172C42.469 12.1172 42.0393 12.0352 41.6721 11.8711C41.3088 11.707 41.0061 11.4805 40.7639 11.1914C40.5217 10.8984 40.3401 10.5586 40.219 10.1719C40.0979 9.78125 40.0373 9.36328 40.0373 8.91797V8.74805C40.0373 8.29883 40.0979 7.88086 40.219 7.49414C40.3401 7.10352 40.5217 6.76367 40.7639 6.47461C41.0061 6.18164 41.3088 5.95312 41.6721 5.78906C42.0354 5.625 42.4612 5.54297 42.9495 5.54297C43.469 5.54297 43.9241 5.64258 44.3147 5.8418C44.7092 6.04102 45.0178 6.32617 45.2405 6.69727C45.467 7.06445 45.5823 7.5 45.5862 8.00391H43.9983C43.9944 7.79297 43.9495 7.60156 43.8635 7.42969C43.7815 7.25781 43.6604 7.12109 43.5002 7.01953C43.344 6.91406 43.1506 6.86133 42.9202 6.86133C42.6741 6.86133 42.4729 6.91406 42.3166 7.01953C42.1604 7.12109 42.0393 7.26172 41.9534 7.44141C41.8674 7.61719 41.8069 7.81836 41.7717 8.04492C41.7405 8.26758 41.7248 8.50195 41.7248 8.74805V8.91797C41.7248 9.16406 41.7405 9.40039 41.7717 9.62695C41.803 9.85352 41.8616 10.0547 41.9475 10.2305C42.0373 10.4062 42.1604 10.5449 42.3166 10.6465C42.4729 10.748 42.676 10.7988 42.926 10.7988ZM50.9466 10.5703V7.74609C50.9466 7.54297 50.9134 7.36914 50.847 7.22461C50.7805 7.07617 50.677 6.96094 50.5364 6.87891C50.3997 6.79688 50.222 6.75586 50.0032 6.75586C49.8157 6.75586 49.6536 6.78906 49.5169 6.85547C49.3802 6.91797 49.2747 7.00977 49.2005 7.13086C49.1263 7.24805 49.0891 7.38672 49.0891 7.54688H47.4016C47.4016 7.27734 47.4641 7.02148 47.5891 6.7793C47.7141 6.53711 47.8958 6.32422 48.1341 6.14062C48.3723 5.95312 48.6555 5.80664 48.9837 5.70117C49.3157 5.5957 49.6868 5.54297 50.097 5.54297C50.5891 5.54297 51.0266 5.625 51.4095 5.78906C51.7923 5.95312 52.093 6.19922 52.3118 6.52734C52.5345 6.85547 52.6458 7.26562 52.6458 7.75781V10.4707C52.6458 10.8184 52.6673 11.1035 52.7102 11.3262C52.7532 11.5449 52.8157 11.7363 52.8977 11.9004V12H51.1927C51.1106 11.8281 51.0481 11.6133 51.0052 11.3555C50.9661 11.0938 50.9466 10.832 50.9466 10.5703ZM51.1692 8.13867L51.1809 9.09375H50.2376C50.0149 9.09375 49.8216 9.11914 49.6575 9.16992C49.4934 9.2207 49.3587 9.29297 49.2532 9.38672C49.1477 9.47656 49.0696 9.58203 49.0188 9.70312C48.972 9.82422 48.9485 9.95703 48.9485 10.1016C48.9485 10.2461 48.9817 10.377 49.0481 10.4941C49.1145 10.6074 49.2102 10.6973 49.3352 10.7637C49.4602 10.8262 49.6067 10.8574 49.7747 10.8574C50.0286 10.8574 50.2493 10.8066 50.4368 10.7051C50.6243 10.6035 50.7688 10.4785 50.8704 10.3301C50.9759 10.1816 51.0305 10.041 51.0345 9.9082L51.4798 10.623C51.4173 10.7832 51.3313 10.9492 51.222 11.1211C51.1165 11.293 50.9817 11.4551 50.8177 11.6074C50.6536 11.7559 50.4563 11.8789 50.2259 11.9766C49.9954 12.0703 49.722 12.1172 49.4055 12.1172C49.0032 12.1172 48.638 12.0371 48.3098 11.877C47.9856 11.7129 47.7278 11.4883 47.5364 11.2031C47.3489 10.9141 47.2552 10.5859 47.2552 10.2188C47.2552 9.88672 47.3177 9.5918 47.4427 9.33398C47.5677 9.07617 47.7513 8.85938 47.9934 8.68359C48.2395 8.50391 48.5462 8.36914 48.9134 8.2793C49.2805 8.18555 49.7063 8.13867 50.1907 8.13867H51.1692ZM58.6507 10.6172V3H60.3499V12H58.8206L58.6507 10.6172ZM54.6429 8.90625V8.7832C54.6429 8.29883 54.6976 7.85938 54.807 7.46484C54.9163 7.06641 55.0765 6.72461 55.2874 6.43945C55.4984 6.1543 55.7581 5.93359 56.0667 5.77734C56.3753 5.62109 56.7269 5.54297 57.1214 5.54297C57.4925 5.54297 57.8167 5.62109 58.0941 5.77734C58.3753 5.93359 58.6136 6.15625 58.8089 6.44531C59.0081 6.73047 59.1683 7.06836 59.2894 7.45898C59.4105 7.8457 59.4984 8.26953 59.553 8.73047V9C59.4984 9.44141 59.4105 9.85156 59.2894 10.2305C59.1683 10.6094 59.0081 10.9414 58.8089 11.2266C58.6136 11.5078 58.3753 11.7266 58.0941 11.8828C57.8128 12.0391 57.4847 12.1172 57.1097 12.1172C56.7152 12.1172 56.3636 12.0371 56.055 11.877C55.7503 11.7168 55.4925 11.4922 55.2816 11.2031C55.0745 10.9141 54.9163 10.5742 54.807 10.1836C54.6976 9.79297 54.6429 9.36719 54.6429 8.90625ZM56.3304 8.7832V8.90625C56.3304 9.16797 56.3499 9.41211 56.389 9.63867C56.432 9.86523 56.5003 10.0664 56.5941 10.2422C56.6917 10.4141 56.8167 10.5488 56.9691 10.6465C57.1253 10.7402 57.3148 10.7871 57.5374 10.7871C57.8265 10.7871 58.0648 10.7227 58.2523 10.5938C58.4398 10.4609 58.5823 10.2793 58.68 10.0488C58.7816 9.81836 58.8402 9.55273 58.8558 9.25195V8.48438C58.8441 8.23828 58.8089 8.01758 58.7503 7.82227C58.6956 7.62305 58.6136 7.45312 58.5042 7.3125C58.3988 7.17188 58.2659 7.0625 58.1058 6.98438C57.9495 6.90625 57.764 6.86719 57.5491 6.86719C57.3304 6.86719 57.1429 6.91797 56.9866 7.01953C56.8304 7.11719 56.7034 7.25195 56.6058 7.42383C56.512 7.5957 56.4417 7.79883 56.3948 8.0332C56.3519 8.26367 56.3304 8.51367 56.3304 8.7832ZM65.5462 12.1172C65.0541 12.1172 64.6127 12.0391 64.222 11.8828C63.8314 11.7227 63.4994 11.502 63.2259 11.2207C62.9564 10.9395 62.7494 10.6133 62.6048 10.2422C62.4603 9.86719 62.388 9.46875 62.388 9.04688V8.8125C62.388 8.33203 62.4564 7.89258 62.5931 7.49414C62.7298 7.0957 62.9252 6.75 63.1791 6.45703C63.4369 6.16406 63.7494 5.93945 64.1166 5.7832C64.4837 5.62305 64.8978 5.54297 65.3587 5.54297C65.808 5.54297 66.2064 5.61719 66.5541 5.76562C66.9017 5.91406 67.1927 6.125 67.4271 6.39844C67.6654 6.67188 67.8451 7 67.9662 7.38281C68.0873 7.76172 68.1478 8.18359 68.1478 8.64844V9.35156H63.1087V8.22656H66.4896V8.09766C66.4896 7.86328 66.4466 7.6543 66.3607 7.4707C66.2787 7.2832 66.1537 7.13477 65.9857 7.02539C65.8177 6.91602 65.6029 6.86133 65.3412 6.86133C65.1185 6.86133 64.9271 6.91016 64.767 7.00781C64.6068 7.10547 64.4759 7.24219 64.3744 7.41797C64.2767 7.59375 64.2025 7.80078 64.1517 8.03906C64.1048 8.27344 64.0814 8.53125 64.0814 8.8125V9.04688C64.0814 9.30078 64.1166 9.53516 64.1869 9.75C64.2611 9.96484 64.3646 10.1504 64.4974 10.3066C64.6341 10.4629 64.7982 10.584 64.9896 10.6699C65.1849 10.7559 65.4056 10.7988 65.6517 10.7988C65.9564 10.7988 66.2396 10.7402 66.5013 10.623C66.767 10.502 66.9955 10.3203 67.1869 10.0781L68.0072 10.9688C67.8744 11.1602 67.6927 11.3438 67.4623 11.5195C67.2357 11.6953 66.9623 11.8398 66.642 11.9531C66.3216 12.0625 65.9564 12.1172 65.5462 12.1172ZM71.7562 6.97266V12H70.0629V5.66016H71.6508L71.7562 6.97266ZM71.5219 8.60742H71.0531C71.0531 8.16602 71.1059 7.75977 71.2113 7.38867C71.3207 7.01367 71.4789 6.68945 71.6859 6.41602C71.8969 6.13867 72.1566 5.92383 72.4652 5.77148C72.7738 5.61914 73.1312 5.54297 73.5375 5.54297C73.8187 5.54297 74.0766 5.58594 74.3109 5.67188C74.5453 5.75391 74.7465 5.88477 74.9145 6.06445C75.0863 6.24023 75.2191 6.4707 75.3129 6.75586C75.4066 7.03711 75.4535 7.375 75.4535 7.76953V12H73.766V7.95703C73.766 7.66797 73.727 7.44531 73.6488 7.28906C73.5707 7.13281 73.4594 7.02344 73.3148 6.96094C73.1742 6.89844 73.0043 6.86719 72.8051 6.86719C72.5863 6.86719 72.3949 6.91211 72.2309 7.00195C72.0707 7.0918 71.9379 7.2168 71.8324 7.37695C71.727 7.5332 71.6488 7.7168 71.598 7.92773C71.5473 8.13867 71.5219 8.36523 71.5219 8.60742ZM75.2953 8.41406L74.6918 8.49023C74.6918 8.07617 74.7426 7.69141 74.8441 7.33594C74.9496 6.98047 75.1039 6.66797 75.307 6.39844C75.5141 6.12891 75.7699 5.91992 76.0746 5.77148C76.3793 5.61914 76.7309 5.54297 77.1293 5.54297C77.434 5.54297 77.7113 5.58789 77.9613 5.67773C78.2113 5.76367 78.4242 5.90234 78.6 6.09375C78.7797 6.28125 78.9164 6.52734 79.0102 6.83203C79.1078 7.13672 79.1566 7.50977 79.1566 7.95117V12H77.4633V7.95117C77.4633 7.6582 77.4242 7.43555 77.3461 7.2832C77.2719 7.12695 77.1625 7.01953 77.018 6.96094C76.8773 6.89844 76.7094 6.86719 76.5141 6.86719C76.3109 6.86719 76.1332 6.9082 75.9809 6.99023C75.8285 7.06836 75.7016 7.17773 75.6 7.31836C75.4984 7.45898 75.4223 7.62305 75.3715 7.81055C75.3207 7.99414 75.2953 8.19531 75.2953 8.41406ZM83.3041 11.2852L84.9858 5.66016H86.7963L84.2475 12.9551C84.1928 13.1152 84.1186 13.2871 84.0248 13.4707C83.935 13.6543 83.812 13.8281 83.6557 13.9922C83.5034 14.1602 83.31 14.2969 83.0756 14.4023C82.8452 14.5078 82.562 14.5605 82.226 14.5605C82.0659 14.5605 81.935 14.5508 81.8334 14.5312C81.7319 14.5117 81.6108 14.4844 81.4702 14.4492V13.2129C81.5131 13.2129 81.558 13.2129 81.6049 13.2129C81.6518 13.2168 81.6967 13.2188 81.7397 13.2188C81.9623 13.2188 82.144 13.1934 82.2846 13.1426C82.4252 13.0918 82.5385 13.0137 82.6245 12.9082C82.7104 12.8066 82.7787 12.6738 82.8295 12.5098L83.3041 11.2852ZM82.601 5.66016L83.978 10.2539L84.2182 12.041L83.0698 12.1641L80.7905 5.66016H82.601Z" fill="white"/>
<path d="M18.748 21L17.134 19.134V21H16.45V16.83H17.134V18.732L18.754 16.83H19.612L17.8 18.918L19.642 21H18.748ZM21.4109 17.382V18.606H22.8509V19.164H21.4109V20.442H23.0309V21H20.7269V16.824H23.0309V17.382H21.4109ZM27.4434 16.83L26.0634 19.488V21H25.3794V19.488L23.9934 16.83H24.7554L25.7214 18.876L26.6874 16.83H27.4434ZM33.1988 16.83V17.388H32.0888V21H31.4048V17.388H30.2888V16.83H33.1988ZM36.2735 21.042C35.8855 21.042 35.5275 20.952 35.1995 20.772C34.8755 20.588 34.6175 20.334 34.4255 20.01C34.2375 19.682 34.1435 19.314 34.1435 18.906C34.1435 18.498 34.2375 18.132 34.4255 17.808C34.6175 17.484 34.8755 17.232 35.1995 17.052C35.5275 16.868 35.8855 16.776 36.2735 16.776C36.6655 16.776 37.0235 16.868 37.3475 17.052C37.6755 17.232 37.9335 17.484 38.1215 17.808C38.3095 18.132 38.4035 18.498 38.4035 18.906C38.4035 19.314 38.3095 19.682 38.1215 20.01C37.9335 20.334 37.6755 20.588 37.3475 20.772C37.0235 20.952 36.6655 21.042 36.2735 21.042ZM36.2735 20.448C36.5495 20.448 36.7955 20.386 37.0115 20.262C37.2275 20.134 37.3955 19.954 37.5155 19.722C37.6395 19.486 37.7015 19.214 37.7015 18.906C37.7015 18.598 37.6395 18.328 37.5155 18.096C37.3955 17.864 37.2275 17.686 37.0115 17.562C36.7955 17.438 36.5495 17.376 36.2735 17.376C35.9975 17.376 35.7515 17.438 35.5355 17.562C35.3195 17.686 35.1495 17.864 35.0255 18.096C34.9055 18.328 34.8455 18.598 34.8455 18.906C34.8455 19.214 34.9055 19.486 35.0255 19.722C35.1495 19.954 35.3195 20.134 35.5355 20.262C35.7515 20.386 35.9975 20.448 36.2735 20.448ZM42.9692 21.042C42.6892 21.042 42.4372 20.994 42.2132 20.898C41.9892 20.798 41.8132 20.658 41.6852 20.478C41.5572 20.298 41.4932 20.088 41.4932 19.848H42.2252C42.2412 20.028 42.3112 20.176 42.4352 20.292C42.5632 20.408 42.7412 20.466 42.9692 20.466C43.2052 20.466 43.3892 20.41 43.5212 20.298C43.6532 20.182 43.7192 20.034 43.7192 19.854C43.7192 19.714 43.6772 19.6 43.5932 19.512C43.5132 19.424 43.4112 19.356 43.2872 19.308C43.1672 19.26 42.9992 19.208 42.7832 19.152C42.5112 19.08 42.2892 19.008 42.1172 18.936C41.9492 18.86 41.8052 18.744 41.6852 18.588C41.5652 18.432 41.5052 18.224 41.5052 17.964C41.5052 17.724 41.5652 17.514 41.6852 17.334C41.8052 17.154 41.9732 17.016 42.1892 16.92C42.4052 16.824 42.6552 16.776 42.9392 16.776C43.3432 16.776 43.6732 16.878 43.9292 17.082C44.1892 17.282 44.3332 17.558 44.3612 17.91H43.6052C43.5932 17.758 43.5212 17.628 43.3892 17.52C43.2572 17.412 43.0832 17.358 42.8672 17.358C42.6712 17.358 42.5112 17.408 42.3872 17.508C42.2632 17.608 42.2012 17.752 42.2012 17.94C42.2012 18.068 42.2392 18.174 42.3152 18.258C42.3952 18.338 42.4952 18.402 42.6152 18.45C42.7352 18.498 42.8992 18.55 43.1072 18.606C43.3832 18.682 43.6072 18.758 43.7792 18.834C43.9552 18.91 44.1032 19.028 44.2232 19.188C44.3472 19.344 44.4092 19.554 44.4092 19.818C44.4092 20.03 44.3512 20.23 44.2352 20.418C44.1232 20.606 43.9572 20.758 43.7372 20.874C43.5212 20.986 43.2652 21.042 42.9692 21.042ZM46.3743 16.83V19.488C46.3743 19.804 46.4563 20.042 46.6203 20.202C46.7883 20.362 47.0203 20.442 47.3163 20.442C47.6163 20.442 47.8483 20.362 48.0123 20.202C48.1803 20.042 48.2643 19.804 48.2643 19.488V16.83H48.9483V19.476C48.9483 19.816 48.8743 20.104 48.7263 20.34C48.5783 20.576 48.3803 20.752 48.1323 20.868C47.8843 20.984 47.6103 21.042 47.3103 21.042C47.0103 21.042 46.7363 20.984 46.4883 20.868C46.2443 20.752 46.0503 20.576 45.9063 20.34C45.7623 20.104 45.6903 19.816 45.6903 19.476V16.83H46.3743ZM50.0908 18.906C50.0908 18.498 50.1848 18.132 50.3728 17.808C50.5648 17.484 50.8228 17.232 51.1468 17.052C51.4748 16.868 51.8328 16.776 52.2208 16.776C52.6648 16.776 53.0588 16.886 53.4028 17.106C53.7508 17.322 54.0028 17.63 54.1588 18.03H53.3368C53.2288 17.81 53.0788 17.646 52.8868 17.538C52.6948 17.43 52.4728 17.376 52.2208 17.376C51.9448 17.376 51.6988 17.438 51.4828 17.562C51.2668 17.686 51.0968 17.864 50.9728 18.096C50.8528 18.328 50.7928 18.598 50.7928 18.906C50.7928 19.214 50.8528 19.484 50.9728 19.716C51.0968 19.948 51.2668 20.128 51.4828 20.256C51.6988 20.38 51.9448 20.442 52.2208 20.442C52.4728 20.442 52.6948 20.388 52.8868 20.28C53.0788 20.172 53.2288 20.008 53.3368 19.788H54.1588C54.0028 20.188 53.7508 20.496 53.4028 20.712C53.0588 20.928 52.6648 21.036 52.2208 21.036C51.8288 21.036 51.4708 20.946 51.1468 20.766C50.8228 20.582 50.5648 20.328 50.3728 20.004C50.1848 19.68 50.0908 19.314 50.0908 18.906ZM55.2115 18.906C55.2115 18.498 55.3055 18.132 55.4935 17.808C55.6855 17.484 55.9435 17.232 56.2675 17.052C56.5955 16.868 56.9535 16.776 57.3415 16.776C57.7855 16.776 58.1795 16.886 58.5235 17.106C58.8715 17.322 59.1235 17.63 59.2795 18.03H58.4575C58.3495 17.81 58.1995 17.646 58.0075 17.538C57.8155 17.43 57.5935 17.376 57.3415 17.376C57.0655 17.376 56.8195 17.438 56.6035 17.562C56.3875 17.686 56.2175 17.864 56.0935 18.096C55.9735 18.328 55.9135 18.598 55.9135 18.906C55.9135 19.214 55.9735 19.484 56.0935 19.716C56.2175 19.948 56.3875 20.128 56.6035 20.256C56.8195 20.38 57.0655 20.442 57.3415 20.442C57.5935 20.442 57.8155 20.388 58.0075 20.28C58.1995 20.172 58.3495 20.008 58.4575 19.788H59.2795C59.1235 20.188 58.8715 20.496 58.5235 20.712C58.1795 20.928 57.7855 21.036 57.3415 21.036C56.9495 21.036 56.5915 20.946 56.2675 20.766C55.9435 20.582 55.6855 20.328 55.4935 20.004C55.3055 19.68 55.2115 19.314 55.2115 18.906ZM61.2441 17.382V18.606H62.6841V19.164H61.2441V20.442H62.8641V21H60.5601V16.824H62.8641V17.382H61.2441ZM65.5606 21.042C65.2806 21.042 65.0286 20.994 64.8046 20.898C64.5806 20.798 64.4046 20.658 64.2766 20.478C64.1486 20.298 64.0846 20.088 64.0846 19.848H64.8166C64.8326 20.028 64.9026 20.176 65.0266 20.292C65.1546 20.408 65.3326 20.466 65.5606 20.466C65.7966 20.466 65.9806 20.41 66.1126 20.298C66.2446 20.182 66.3106 20.034 66.3106 19.854C66.3106 19.714 66.2686 19.6 66.1846 19.512C66.1046 19.424 66.0026 19.356 65.8786 19.308C65.7586 19.26 65.5906 19.208 65.3746 19.152C65.1026 19.08 64.8806 19.008 64.7086 18.936C64.5406 18.86 64.3966 18.744 64.2766 18.588C64.1566 18.432 64.0966 18.224 64.0966 17.964C64.0966 17.724 64.1566 17.514 64.2766 17.334C64.3966 17.154 64.5646 17.016 64.7806 16.92C64.9966 16.824 65.2466 16.776 65.5306 16.776C65.9346 16.776 66.2646 16.878 66.5206 17.082C66.7806 17.282 66.9246 17.558 66.9526 17.91H66.1966C66.1846 17.758 66.1126 17.628 65.9806 17.52C65.8486 17.412 65.6746 17.358 65.4586 17.358C65.2626 17.358 65.1026 17.408 64.9786 17.508C64.8546 17.608 64.7926 17.752 64.7926 17.94C64.7926 18.068 64.8306 18.174 64.9066 18.258C64.9866 18.338 65.0866 18.402 65.2066 18.45C65.3266 18.498 65.4906 18.55 65.6986 18.606C65.9746 18.682 66.1986 18.758 66.3706 18.834C66.5466 18.91 66.6946 19.028 66.8146 19.188C66.9386 19.344 67.0006 19.554 67.0006 19.818C67.0006 20.03 66.9426 20.23 66.8266 20.418C66.7146 20.606 66.5486 20.758 66.3286 20.874C66.1126 20.986 65.8566 21.042 65.5606 21.042ZM69.6617 21.042C69.3817 21.042 69.1297 20.994 68.9057 20.898C68.6817 20.798 68.5057 20.658 68.3777 20.478C68.2497 20.298 68.1857 20.088 68.1857 19.848H68.9177C68.9337 20.028 69.0037 20.176 69.1277 20.292C69.2557 20.408 69.4337 20.466 69.6617 20.466C69.8977 20.466 70.0817 20.41 70.2137 20.298C70.3457 20.182 70.4117 20.034 70.4117 19.854C70.4117 19.714 70.3697 19.6 70.2857 19.512C70.2057 19.424 70.1037 19.356 69.9797 19.308C69.8597 19.26 69.6917 19.208 69.4757 19.152C69.2037 19.08 68.9817 19.008 68.8097 18.936C68.6417 18.86 68.4977 18.744 68.3777 18.588C68.2577 18.432 68.1977 18.224 68.1977 17.964C68.1977 17.724 68.2577 17.514 68.3777 17.334C68.4977 17.154 68.6657 17.016 68.8817 16.92C69.0977 16.824 69.3477 16.776 69.6317 16.776C70.0357 16.776 70.3657 16.878 70.6217 17.082C70.8817 17.282 71.0257 17.558 71.0537 17.91H70.2977C70.2857 17.758 70.2137 17.628 70.0817 17.52C69.9497 17.412 69.7757 17.358 69.5597 17.358C69.3637 17.358 69.2037 17.408 69.0797 17.508C68.9557 17.608 68.8937 17.752 68.8937 17.94C68.8937 18.068 68.9317 18.174 69.0077 18.258C69.0877 18.338 69.1877 18.402 69.3077 18.45C69.4277 18.498 69.5917 18.55 69.7997 18.606C70.0757 18.682 70.2997 18.758 70.4717 18.834C70.6477 18.91 70.7957 19.028 70.9157 19.188C71.0397 19.344 71.1017 19.554 71.1017 19.818C71.1017 20.03 71.0437 20.23 70.9277 20.418C70.8157 20.606 70.6497 20.758 70.4297 20.874C70.2137 20.986 69.9577 21.042 69.6617 21.042Z" fill="white"/>
</svg>
