<svg width="48" height="48" viewBox="0 0 48 48" fill="none" xmlns="http://www.w3.org/2000/svg">
<path d="M42.293 35.0098C40.8263 33.5421 39.1126 32.3441 37.2305 31.4707C39.8848 29.3203 41.5781 26.0391 41.5781 22.3594C41.5781 15.8672 36.1641 10.541 29.6719 10.6407C23.2793 10.7403 18.1289 15.9493 18.1289 22.3594C18.1289 26.0391 19.8281 29.3203 22.4766 31.4707C20.594 32.3434 18.8802 33.5415 17.4141 35.0098C14.2148 38.2149 12.3984 42.4453 12.2812 46.9571C12.2797 47.0196 12.2907 47.0818 12.3135 47.14C12.3364 47.1983 12.3706 47.2513 12.4143 47.2961C12.458 47.3409 12.5102 47.3765 12.5679 47.4008C12.6255 47.425 12.6874 47.4375 12.75 47.4375H16.0312C16.2832 47.4375 16.4941 47.2383 16.5 46.9864C16.6113 43.5879 17.9883 40.4063 20.4082 37.9922C21.6465 36.7473 23.1194 35.7604 24.7417 35.0885C26.364 34.4167 28.1035 34.0733 29.8594 34.0782C33.4277 34.0782 36.7851 35.4668 39.3105 37.9922C41.7246 40.4063 43.1016 43.5879 43.2187 46.9864C43.2246 47.2383 43.4355 47.4375 43.6875 47.4375H46.9687C47.0313 47.4375 47.0932 47.425 47.1509 47.4008C47.2085 47.3765 47.2607 47.3409 47.3044 47.2961C47.3481 47.2513 47.3824 47.1983 47.4052 47.14C47.4281 47.0818 47.4391 47.0196 47.4375 46.9571C47.3203 42.4453 45.5039 38.2149 42.293 35.0098ZM29.8594 29.8594C27.8555 29.8594 25.9687 29.0801 24.5566 27.6621C23.848 26.9591 23.2882 26.1204 22.9107 25.1963C22.5332 24.2721 22.3457 23.2814 22.3594 22.2832C22.3769 20.3614 23.1445 18.5039 24.4863 17.127C25.8926 15.6856 27.7734 14.8828 29.7832 14.8594C31.7695 14.8418 33.6973 15.6153 35.1152 17.0039C36.5684 18.4278 37.3652 20.3321 37.3652 22.3594C37.3652 24.3633 36.5859 26.2442 35.168 27.6621C34.4723 28.3611 33.6449 28.9152 32.7337 29.2924C31.8225 29.6696 30.8455 29.8623 29.8594 29.8594ZM15.1816 23.9063C15.1289 23.3965 15.0996 22.8809 15.0996 22.3594C15.0996 21.4278 15.1875 20.5196 15.3516 19.6348C15.3926 19.4239 15.2812 19.2071 15.0879 19.1192C14.291 18.7618 13.5586 18.2696 12.9258 17.6485C12.1801 16.9255 11.5933 16.055 11.2029 15.0925C10.8125 14.1301 10.627 13.0968 10.6582 12.0586C10.7109 10.1778 11.4668 8.39066 12.7852 7.043C14.2324 5.56058 16.1777 4.75198 18.2461 4.77542C20.1152 4.793 21.9199 5.5137 23.2851 6.79105C23.748 7.22464 24.1465 7.70511 24.4805 8.22074C24.5977 8.40238 24.8262 8.47855 25.0254 8.40824C26.0566 8.05081 27.1465 7.79886 28.2656 7.68167C28.5937 7.64652 28.7812 7.29495 28.6348 7.00198C26.7305 3.23441 22.8398 0.632845 18.3398 0.562532C11.8418 0.462923 6.42773 5.78909 6.42773 12.2754C6.42773 15.9551 8.12109 19.2364 10.7754 21.3868C8.9121 22.2481 7.19531 23.4375 5.70703 24.9258C2.49609 28.1309 0.679681 32.3614 0.562494 36.8789C0.56093 36.9415 0.571899 37.0037 0.594755 37.0619C0.61761 37.1202 0.65189 37.1732 0.695574 37.218C0.739259 37.2628 0.791464 37.2984 0.849113 37.3226C0.906761 37.3469 0.968688 37.3594 1.03124 37.3594H4.31835C4.57031 37.3594 4.78124 37.1602 4.7871 36.9082C4.89843 33.5098 6.27538 30.3282 8.69531 27.9141C10.418 26.1914 12.5273 24.9961 14.8301 24.416C15.0586 24.3575 15.2109 24.1407 15.1816 23.9063Z" fill="#789C18"/>
</svg>
