<svg width="90" height="90" viewBox="0 0 90 90" fill="none" xmlns="http://www.w3.org/2000/svg">
<circle cx="45" cy="45" r="45" fill="#3EB97F"/>
<path d="M63.2931 56.0097C61.8265 54.542 60.1128 53.344 58.2306 52.4707C60.8849 50.3203 62.5783 47.039 62.5783 43.3593C62.5783 36.8672 57.1642 31.541 50.672 31.6406C44.2794 31.7402 39.1291 36.9492 39.1291 43.3593C39.1291 47.039 40.8283 50.3203 43.4767 52.4707C41.5942 53.3434 39.8804 54.5414 38.4142 56.0097C35.215 59.2148 33.3986 63.4453 33.2814 67.957C33.2798 68.0195 33.2908 68.0818 33.3137 68.14C33.3365 68.1982 33.3708 68.2513 33.4145 68.2961C33.4582 68.3408 33.5104 68.3764 33.568 68.4007C33.6257 68.425 33.6876 68.4375 33.7501 68.4375H37.0314C37.2833 68.4375 37.4943 68.2383 37.5001 67.9863C37.6115 64.5879 38.9884 61.4062 41.4084 58.9922C42.6467 57.7473 44.1196 56.7603 45.7419 56.0885C47.3642 55.4166 49.1036 55.0732 50.8595 55.0781C54.4279 55.0781 57.7853 56.4668 60.3107 58.9922C62.7248 61.4062 64.1017 64.5879 64.2189 67.9863C64.2248 68.2383 64.4357 68.4375 64.6876 68.4375H67.9689C68.0315 68.4375 68.0934 68.425 68.151 68.4007C68.2087 68.3764 68.2609 68.3408 68.3046 68.2961C68.3483 68.2513 68.3825 68.1982 68.4054 68.14C68.4282 68.0818 68.4392 68.0195 68.4376 67.957C68.3205 63.4453 66.5041 59.2148 63.2931 56.0097ZM50.8595 50.8593C48.8556 50.8593 46.9689 50.08 45.5568 48.6621C44.8481 47.959 44.2883 47.1204 43.9108 46.1962C43.5333 45.2721 43.3458 44.2814 43.3595 43.2832C43.3771 41.3613 44.1447 39.5039 45.4865 38.1269C46.8927 36.6855 48.7736 35.8828 50.7834 35.8593C52.7697 35.8418 54.6974 36.6152 56.1154 38.0039C57.5685 39.4277 58.3654 41.332 58.3654 43.3593C58.3654 45.3633 57.5861 47.2441 56.1681 48.6621C55.4724 49.3611 54.6451 49.9152 53.7339 50.2923C52.8227 50.6695 51.8457 50.8622 50.8595 50.8593ZM36.1818 44.9062C36.1291 44.3965 36.0998 43.8808 36.0998 43.3593C36.0998 42.4277 36.1876 41.5195 36.3517 40.6347C36.3927 40.4238 36.2814 40.207 36.088 40.1191C35.2912 39.7617 34.5587 39.2695 33.9259 38.6484C33.1803 37.9254 32.5935 37.0549 32.2031 36.0924C31.8126 35.13 31.6271 34.0967 31.6583 33.0586C31.7111 31.1777 32.4669 29.3906 33.7853 28.0429C35.2326 26.5605 37.1779 25.7519 39.2462 25.7754C41.1154 25.7929 42.9201 26.5136 44.2853 27.791C44.7482 28.2246 45.1466 28.705 45.4806 29.2207C45.5978 29.4023 45.8263 29.4785 46.0255 29.4082C47.0568 29.0508 48.1466 28.7988 49.2658 28.6816C49.5939 28.6465 49.7814 28.2949 49.6349 28.0019C47.7306 24.2343 43.84 21.6328 39.34 21.5625C32.8419 21.4629 27.4279 26.789 27.4279 33.2754C27.4279 36.955 29.1212 40.2363 31.7755 42.3867C29.9123 43.248 28.1955 44.4375 26.7072 45.9258C23.4962 49.1308 21.6798 53.3613 21.5626 57.8789C21.5611 57.9414 21.5721 58.0036 21.5949 58.0619C21.6178 58.1201 21.652 58.1732 21.6957 58.2179C21.7394 58.2627 21.7916 58.2983 21.8493 58.3226C21.9069 58.3469 21.9688 58.3594 22.0314 58.3593H25.3185C25.5705 58.3593 25.7814 58.1601 25.7873 57.9082C25.8986 54.5097 27.2755 51.3281 29.6955 48.914C31.4181 47.1914 33.5275 45.9961 35.8302 45.416C36.0587 45.3574 36.2111 45.1406 36.1818 44.9062Z" fill="white"/>
</svg>
