<svg width="68" height="68" viewBox="0 0 68 68" fill="none" xmlns="http://www.w3.org/2000/svg">
<path d="M64.1325 54.3575C64.6725 53.937 65.103 53.3922 65.3873 52.7696C65.6716 52.147 65.8014 51.4649 65.7655 50.7814C65.7296 50.0979 65.5292 49.4332 65.1812 48.8437C64.8333 48.2543 64.3481 47.7577 63.767 47.396L63.75 22.6525L59.5 25.5V47.3875C58.9248 47.7484 58.4444 48.2418 58.0991 48.8265C57.7538 49.4112 57.5536 50.0701 57.5153 50.7481C57.477 51.426 57.6017 52.1033 57.879 52.7232C58.1563 53.343 58.5781 53.8874 59.109 54.3108L57.5025 56.4443C56.0737 58.2619 55.2822 60.499 55.25 62.8108V68.0042H58.7137C59.5458 68.0042 60.3541 67.7266 61.0107 67.2155C61.6674 66.7044 62.1348 65.9889 62.339 65.1823L63.7457 59.5043V68.0042H67.9958V62.8618C67.9589 60.5389 67.1617 58.2921 65.7262 56.4655L64.1325 54.3575ZM34 0L0 17L34 38.25L68 17L34 0Z" fill="#94C21A"/>
<path d="M34 42.4997L12.75 28.3472V35.6147C12.75 39.4822 25.245 50.9997 34 50.9997C42.755 50.9997 55.25 39.4822 55.25 35.6147V28.3472L34 42.4997Z" fill="#94C21A"/>
</svg>
