<svg width="89" height="87" viewBox="0 0 89 87" fill="none" xmlns="http://www.w3.org/2000/svg">
<rect width="89" height="87" rx="20" fill="#00A0E3"/>
<path d="M41 68C37.8483 68 34.7274 67.3792 31.8156 66.1731C28.9038 64.967 26.258 63.1992 24.0294 60.9706C19.5286 56.4697 17 50.3652 17 44C17 37.6348 19.5286 31.5303 24.0294 27.0294C28.5303 22.5286 34.6348 20 41 20C54.2 20 65 29.6 65 41.6C65 45.4191 63.4829 49.0818 60.7823 51.7823C58.0818 54.4829 54.4191 56 50.6 56H46.28C45.56 56 45.08 56.48 45.08 57.2C45.08 57.44 45.32 57.68 45.32 57.92C46.28 59.12 46.76 60.56 46.76 62C47 65.36 44.36 68 41 68ZM41 24.8C35.9078 24.8 31.0242 26.8229 27.4236 30.4236C23.8229 34.0242 21.8 38.9078 21.8 44C21.8 49.0922 23.8229 53.9758 27.4236 57.5765C31.0242 61.1772 35.9078 63.2 41 63.2C41.72 63.2 42.2 62.72 42.2 62C42.2 61.52 41.96 61.28 41.96 61.04C41 59.84 40.52 58.64 40.52 57.2C40.52 53.84 43.16 51.2 46.52 51.2H50.6C53.1461 51.2 55.5879 50.1886 57.3882 48.3882C59.1886 46.5879 60.2 44.1461 60.2 41.6C60.2 32.24 51.56 24.8 41 24.8ZM27.8 39.2C29.72 39.2 31.4 40.88 31.4 42.8C31.4 44.72 29.72 46.4 27.8 46.4C25.88 46.4 24.2 44.72 24.2 42.8C24.2 40.88 25.88 39.2 27.8 39.2ZM35 29.6C36.92 29.6 38.6 31.28 38.6 33.2C38.6 35.12 36.92 36.8 35 36.8C33.08 36.8 31.4 35.12 31.4 33.2C31.4 31.28 33.08 29.6 35 29.6ZM47 29.6C48.92 29.6 50.6 31.28 50.6 33.2C50.6 35.12 48.92 36.8 47 36.8C45.08 36.8 43.4 35.12 43.4 33.2C43.4 31.28 45.08 29.6 47 29.6ZM54.2 39.2C56.12 39.2 57.8 40.88 57.8 42.8C57.8 44.72 56.12 46.4 54.2 46.4C52.28 46.4 50.6 44.72 50.6 42.8C50.6 40.88 52.28 39.2 54.2 39.2Z" fill="white"/>
</svg>
