<svg width="89" height="87" viewBox="0 0 89 87" fill="none" xmlns="http://www.w3.org/2000/svg">
<rect width="89" height="87" rx="20" fill="#00A0E3"/>
<path d="M27.5128 54.7181C24.1282 57.5611 23 66 23 66C23 66 31.4389 64.8718 34.2819 61.4872C35.8839 59.5919 35.8614 56.6811 34.0788 54.9212C33.2018 54.0841 32.0465 53.6004 30.8347 53.5629C29.6228 53.5254 28.4399 53.9368 27.5128 54.7181ZM44.4356 51.3335L37.6665 44.5644C38.8672 41.4493 40.3791 38.4633 42.1792 35.6517C44.8083 31.448 48.4692 27.9868 52.8136 25.5974C57.158 23.208 62.0414 21.9698 66.9994 22.0006C66.9994 28.1379 65.2395 38.9234 53.4612 46.8208C50.6107 48.6223 47.5871 50.1341 44.4356 51.3335Z" stroke="white" stroke-width="2" stroke-linecap="round" stroke-linejoin="round"/>
<path d="M37.6667 44.5639H26.3848C26.3848 44.5639 27.6258 37.7271 30.8975 35.5384C34.5529 33.1015 42.1794 35.5384 42.1794 35.5384M44.4358 51.3331V62.615C44.4358 62.615 51.2727 61.374 53.4613 58.1022C55.8982 54.4469 53.4613 46.8203 53.4613 46.8203" stroke="white" stroke-width="2" stroke-linecap="round" stroke-linejoin="round"/>
</svg>
