<svg width="89" height="87" viewBox="0 0 89 87" fill="none" xmlns="http://www.w3.org/2000/svg">
<rect width="89" height="87" rx="20" fill="#00A0E3"/>
<path d="M45.0045 58.4083V27.2018M45.0045 27.2018C45.0045 26.0972 45.2586 25.0073 45.7471 24.0166C46.2357 23.0258 46.9456 22.1607 47.8219 21.4883C48.6983 20.8158 49.7176 20.3539 50.801 20.1384C51.8845 19.9229 53.0029 19.9595 54.0699 20.2454C55.1369 20.5313 56.1239 21.0588 56.9544 21.7872C57.7849 22.5156 58.4367 23.4252 58.8594 24.4458C59.2821 25.4664 59.4644 26.5705 59.3921 27.6728C59.3198 28.7751 58.9949 29.8459 58.4425 30.8026M45.0045 27.2018C45.0046 26.0972 44.7505 25.0073 44.262 24.0166C43.7734 23.0258 43.0635 22.1607 42.1872 21.4883C41.3108 20.8158 40.2915 20.3539 39.2081 20.1384C38.1246 19.9229 37.0062 19.9595 35.9391 20.2454C34.8721 20.5313 33.8852 21.0588 33.0547 21.7872C32.2242 22.5156 31.5724 23.4252 31.1497 24.4458C30.727 25.4664 30.5447 26.5705 30.617 27.6728C30.6893 28.7751 31.0142 29.8459 31.5666 30.8026M52.206 46.4058C50.1291 45.7987 48.3049 44.5349 47.0066 42.8038C45.7083 41.0728 45.0058 38.9676 45.0045 36.8038C45.0032 38.9676 44.3008 41.0728 43.0025 42.8038C41.7042 44.5349 39.88 45.7987 37.8031 46.4058" stroke="white" stroke-width="3" stroke-linecap="round" stroke-linejoin="round"/>
<path d="M59.3984 27.5015C60.8094 27.8643 62.1194 28.5434 63.2291 29.4874C64.3388 30.4314 65.2191 31.6156 65.8033 32.9502C66.3876 34.2848 66.6605 35.7349 66.6014 37.1906C66.5423 38.6463 66.1527 40.0695 65.4621 41.3523" stroke="white" stroke-width="3" stroke-linecap="round" stroke-linejoin="round"/>
<path d="M59.4082 58.4083C61.5219 58.4082 63.5764 57.7107 65.2533 56.4239C66.9301 55.1372 68.1355 53.3331 68.6826 51.2915C69.2296 49.2499 69.0878 47.0848 68.279 45.132C67.4702 43.1792 66.0396 41.5479 64.2092 40.491" stroke="white" stroke-width="3" stroke-linecap="round" stroke-linejoin="round"/>
<path d="M64.1295 57.1667C64.2977 58.4684 64.1973 59.7907 63.8345 61.052C63.4717 62.3133 62.8541 63.4869 62.02 64.5002C61.1858 65.5135 60.1528 66.345 58.9847 66.9434C57.8166 67.5418 56.5382 67.8944 55.2285 67.9794C53.9188 68.0644 52.6056 67.88 51.3699 67.4375C50.1343 66.9951 49.0025 66.3041 48.0444 65.4071C47.0862 64.5101 46.3222 63.4262 45.7994 62.2224C45.2766 61.0185 45.0061 59.7203 45.0047 58.4078C45.0033 59.7203 44.7329 61.0185 44.2101 62.2224C43.6873 63.4262 42.9233 64.5101 41.9651 65.4071C41.007 66.3041 39.8752 66.9951 38.6396 67.4375C37.4039 67.88 36.0907 68.0644 34.781 67.9794C33.4713 67.8944 32.1929 67.5418 31.0248 66.9434C29.8567 66.345 28.8237 65.5135 27.9895 64.5002C27.1554 63.4869 26.5378 62.3133 26.175 61.052C25.8122 59.7907 25.7118 58.4684 25.88 57.1667" stroke="white" stroke-width="3" stroke-linecap="round" stroke-linejoin="round"/>
<path d="M30.6016 58.4083C28.4879 58.4082 26.4334 57.7107 24.7565 56.4239C23.0797 55.1372 21.8743 53.3331 21.3272 51.2915C20.7801 49.2499 20.922 47.0848 21.7308 45.132C22.5396 43.1792 23.9702 41.5479 25.8006 40.491" stroke="white" stroke-width="3" stroke-linecap="round" stroke-linejoin="round"/>
<path d="M30.6074 27.5015C29.1963 27.8643 27.8864 28.5434 26.7767 29.4874C25.667 30.4314 24.7867 31.6156 24.2025 32.9502C23.6182 34.2848 23.3453 35.7349 23.4044 37.1906C23.4635 38.6463 23.8531 40.0695 24.5437 41.3523" stroke="white" stroke-width="3" stroke-linecap="round" stroke-linejoin="round"/>
</svg>
