<svg width="26" height="28" viewBox="0 0 26 28" fill="none" xmlns="http://www.w3.org/2000/svg">
<path fill-rule="evenodd" clip-rule="evenodd" d="M6.43525 5.27489V3.3669C6.43544 2.68365 6.64337 2.02315 7.02125 1.50545C7.39913 0.987742 7.92188 0.647189 8.4945 0.545678L10.1806 0.247249C12.0498 -0.0824163 13.9502 -0.0824163 15.8194 0.247249L17.5055 0.545678C18.0781 0.647189 18.6009 0.987742 18.9788 1.50545C19.3566 2.02315 19.5646 2.68365 19.5648 3.3669V5.27489L21.9336 5.49993C22.8149 5.58395 23.6469 6.01422 24.2966 6.72196C24.9463 7.42971 25.3761 8.37404 25.5173 9.40398C26.1609 14.0885 26.1609 18.8647 25.5173 23.5492C25.3761 24.5791 24.9463 25.5235 24.2966 26.2312C23.6469 26.939 22.8149 27.3692 21.9336 27.4533L19.3464 27.6979C15.1223 28.1007 10.8776 28.1007 6.65361 27.6979L4.0664 27.4533C3.18507 27.3692 2.35305 26.939 1.70339 26.2312C1.05373 25.5235 0.623938 24.5791 0.482739 23.5492C-0.160913 18.8647 -0.160913 14.0885 0.482739 9.40398C0.624219 8.37434 1.05413 7.43038 1.70377 6.72296C2.35341 6.01554 3.18527 5.5855 4.0664 5.50156L6.43525 5.27489ZM10.4888 2.66567C12.1537 2.37225 13.8463 2.37225 15.5112 2.66567L17.1973 2.9641C17.2791 2.97854 17.3538 3.02714 17.4078 3.10105C17.4618 3.17497 17.4916 3.26929 17.4917 3.3669V5.10366C14.4997 4.90203 11.5003 4.90203 8.50833 5.10366V3.36527C8.50841 3.26766 8.53816 3.17334 8.59218 3.09942C8.6462 3.02551 8.7209 2.97691 8.8027 2.96247L10.4888 2.66567ZM6.82084 7.69168C10.9338 7.30029 15.0662 7.30029 19.1792 7.69168L21.7664 7.93955C22.1856 7.97914 22.5815 8.1835 22.8907 8.51994C23.1999 8.85639 23.4045 9.30548 23.4718 9.79536C23.5575 10.4227 23.6312 11.0521 23.693 11.6838C20.3662 13.6159 16.7079 14.6207 13 14.6207C9.29213 14.6207 5.63378 13.6159 2.30705 11.6838C2.36786 11.0532 2.44157 10.4237 2.52818 9.79536C2.59549 9.30548 2.80011 8.85639 3.1093 8.51994C3.41849 8.1835 3.81438 7.97914 4.23363 7.93955L6.82084 7.69168ZM2.12186 14.2865C5.53813 16.1189 9.24732 17.067 13 17.067C16.7527 17.067 20.4619 16.1189 23.8781 14.2865C24.0105 17.2522 23.8743 20.2262 23.4718 23.1578C23.4048 23.648 23.2003 24.0975 22.8911 24.4342C22.5819 24.771 22.1858 24.9756 21.7664 25.0153L19.1792 25.2599C15.0662 25.6513 10.9338 25.6513 6.82084 25.2599L4.23363 25.0153C3.81418 24.9756 3.41814 24.771 3.10892 24.4342C2.79971 24.0975 2.59521 23.648 2.52818 23.1578C2.126 20.2225 1.98918 17.2479 2.12186 14.2865Z" fill="#94C21A"/>
</svg>
