<svg width="30" height="30" viewBox="0 0 30 30" fill="none" xmlns="http://www.w3.org/2000/svg">
<path fill-rule="evenodd" clip-rule="evenodd" d="M15 0C18.9782 0 22.7936 1.41054 25.6066 3.92133C28.4196 6.43211 30 9.83746 30 13.3882C30 17.9611 27.2067 21.7038 24.2633 24.3889C22.7928 25.7159 21.1882 26.919 19.47 27.9829L18.76 28.4143L18.4267 28.6122L17.7983 28.9692L17.2383 29.2741L16.545 29.6341C16.0744 29.8739 15.5419 30 15 30C14.4581 30 13.9256 29.8739 13.455 29.6341L12.7617 29.2741L11.895 28.7981L11.575 28.6122L10.8917 28.2061C9.03805 27.0867 7.31151 25.8082 5.73667 24.3889C2.79333 21.7024 0 17.9611 0 13.3882C0 9.83746 1.58035 6.43211 4.3934 3.92133C7.20644 1.41054 11.0218 0 15 0ZM15 2.97517C11.9058 2.97517 8.93834 4.07226 6.75042 6.02509C4.5625 7.97792 3.33333 10.6265 3.33333 13.3882C3.33333 16.8424 5.45333 19.8741 8.11833 22.3078C9.26422 23.3431 10.5028 24.2934 11.8217 25.1491L12.585 25.634C12.8317 25.7877 13.0689 25.9306 13.2967 26.0625L13.9467 26.4344L14.5183 26.7453L15 26.9967L15.7583 26.5965L16.37 26.2544C16.6956 26.0699 17.0439 25.8631 17.415 25.634L18.1783 25.1491C19.4972 24.2934 20.7358 23.3431 21.8817 22.3078C24.5467 19.8756 26.6667 16.8424 26.6667 13.3882C26.6667 10.6265 25.4375 7.97792 23.2496 6.02509C21.0617 4.07226 18.0942 2.97517 15 2.97517ZM15 7.43792C16.7681 7.43792 18.4638 8.06482 19.714 9.18073C20.9643 10.2966 21.6667 11.8101 21.6667 13.3882C21.6667 14.9664 20.9643 16.4799 19.714 17.5958C18.4638 18.7117 16.7681 19.3386 15 19.3386C13.2319 19.3386 11.5362 18.7117 10.286 17.5958C9.03571 16.4799 8.33333 14.9664 8.33333 13.3882C8.33333 11.8101 9.03571 10.2966 10.286 9.18073C11.5362 8.06482 13.2319 7.43792 15 7.43792ZM15 10.4131C14.1159 10.4131 13.2681 10.7265 12.643 11.2845C12.0179 11.8424 11.6667 12.5992 11.6667 13.3882C11.6667 14.1773 12.0179 14.9341 12.643 15.492C13.2681 16.05 14.1159 16.3634 15 16.3634C15.8841 16.3634 16.7319 16.05 17.357 15.492C17.9821 14.9341 18.3333 14.1773 18.3333 13.3882C18.3333 12.5992 17.9821 11.8424 17.357 11.2845C16.7319 10.7265 15.8841 10.4131 15 10.4131Z" fill="#94C21A"/>
</svg>
