<svg width="66" height="70" viewBox="0 0 66 70" fill="none" xmlns="http://www.w3.org/2000/svg">
<path d="M30.8978 70C30.8978 70 76.8703 69.0208 63.5925 22.0198C63.5925 22.0198 63.1041 53.3777 30.8978 70Z" fill="#94C21A"/>
<path d="M1.3889 27.7277C2.52833 20.7301 5.30859 15.9452 8.99284 12.1563C12.6771 8.36737 17.262 5.58953 22.202 3.87721C27.142 2.16488 32.4007 1.64911 37.567 2.37021C42.7332 3.0913 48.1148 5.16362 52.4307 8.16786L47.6172 14.4729C44.3198 12.1776 40.5188 10.6294 36.5717 10.0785C32.6246 9.52754 28.6494 9.98824 24.8751 11.2965C21.1008 12.6047 17.5507 15.1367 14.7358 18.0315C11.921 20.9263 9.79659 24.5184 8.52777 28.3965L1.3889 27.7277Z" fill="#00A0E3"/>
<path d="M43.2342 23.7871C23.5729 37.639 0.27272 31.549 0.27272 31.549C0.27272 31.6365 0.226213 31.7161 0.133198 32.2177C0.0547578 32.6406 -0.122593 36.5643 0.133198 39.5974C0.33783 42.0239 1.00909 45.5044 1.36564 47.001C26.0331 47.2112 42.1216 37.0579 47.0824 31.955C55.663 23.7871 62.267 9.60082 60.5927 0C58.6627 11.0815 50.0931 18.8589 43.2342 23.7871Z" fill="#00A0E3"/>
<path d="M10.4113 60.6141C6.69075 58.0348 3.87706 52.4224 3.87706 52.4224C47.0358 50.5118 60.151 23.2378 60.151 23.2378C49.0357 55.4555 10.4113 60.6141 10.4113 60.6141Z" fill="#94C21A"/>
</svg>
